<svg width="24" height="24" xmlns="http://www.w3.org/2000/svg"><path fill-rule="evenodd" clip-rule="evenodd" d="M13.406 1.406a1.407 1.407 0 00-2.813 0v3.642h2.813V1.406zM23.42 6.207H.58a.58.58 0 00-.58.58v3.558c0 .32.26.58.58.58h22.84c.32 0 .58-.26.58-.58V6.787a.58.58 0 00-.58-.58zM5.206 23.337a2.309 2.309 0 01-2.308-2.102l-.855-9.151h19.914l-.855 9.15a2.309 2.309 0 01-2.308 2.104H5.206zm11.76-8.44a.58.58 0 00-.58.58v4.137a.58.58 0 001.16 0v-4.137a.58.58 0 00-.58-.58zm-4.966 0a.58.58 0 00-.58.58v4.137a.58.58 0 001.16 0v-4.137a.58.58 0 00-.58-.58zm-4.966 0a.58.58 0 00-.58.58v4.137a.58.58 0 001.16 0v-4.137a.58.58 0 00-.58-.58z"/></svg>