<svg width="21" height="24" xmlns="http://www.w3.org/2000/svg"><path fill="#DF4834" d="M7.5 24h8.953a3.754 3.754 0 003.75-3.75V7.547a3.754 3.754 0 00-3.75-3.75H7.5a3.754 3.754 0 00-3.75 3.75V20.25A3.754 3.754 0 007.5 24zm8.953-18.328c1.034 0 1.875.841 1.875 1.875V20.25a1.877 1.877 0 01-1.875 1.875H7.5a1.877 1.877 0 01-1.875-1.875V7.547c0-1.034.841-1.875 1.875-1.875h8.953zM0 17.906V3.75A3.754 3.754 0 013.75 0h10.406a.937.937 0 110 1.875H3.75A1.877 1.877 0 001.875 3.75v14.156a.937.937 0 11-1.875 0z"/></svg>