<svg xmlns="http://www.w3.org/2000/svg" viewBox="0 0 52 52"><path d="M52 20.1c0-.4-.2-.7-.5-.9L47.2 16v-3c0-.3-.1-.6-.3-.8L35.1.3c-.2-.2-.5-.3-.8-.3H9.5C6.9 0 4.8 2.1 4.8 4.7V16L.6 19.2c-.4.2-.6.5-.6.9v27.2C0 49.9 2.1 52 4.8 52h42.5c2.6 0 4.7-2.1 4.7-4.7V20.1zm-4.8-1.2l1.6 1.2c-.4.3-1 .8-1.6 1.2v-2.4zM35.4 4l7.8 7.8h-5.4c-1.3 0-2.4-1.1-2.4-2.4V4zm-28.3.7c0-1.3 1.1-2.4 2.4-2.4h23.6v7.1c0 2.6 2.1 4.7 4.7 4.7h7.1v9C39.4 27.4 31.1 34 27.6 37c-.3.3-.9.7-1.6.7-.6 0-1.1-.2-1.6-.7-3.5-3-11.8-9.5-17.3-13.8V4.7zM4.8 18.9v2.4c-.6-.5-1.2-.9-1.6-1.2l1.6-1.2zm44.8 28.4c0 1.3-1.1 2.4-2.4 2.4H4.8c-1.3 0-2.4-1.1-2.4-2.4V22.5c4.9 3.8 16.3 12.8 20.4 16.4.9.8 2 1.3 3.2 1.3 1.1 0 2.3-.5 3.2-1.3 4.2-3.8 15.9-12.8 20.4-16.4v24.8z"/></svg>