<svg xmlns="http://www.w3.org/2000/svg" viewBox="0 0 52 52"><path d="M33.4 3.6c2-2 4.7-3.1 7.5-3.1 5.9 0 10.6 4.8 10.6 10.6 0 2.8-1.1 5.5-3.1 7.5L34.5 32.5c-2 2-4.7 3.1-7.5 3.1s-5.5-1.1-7.5-3.1l2.3-2.3c2.8 2.8 7.7 2.8 10.5 0l13.8-13.9c1.4-1.4 2.2-3.3 2.2-5.3 0-4.1-3.3-7.4-7.4-7.4-2 0-3.8.8-5.2 2.2L28 13.6c-1-.2-1.9-.4-2.9-.4-.3 0-.6 0-.9.1-.1 0-.3 0-.4.1l9.6-9.8zm-17 42.6l7.7-7.7c1 .2 2 .3 3 .3.3 0 .6 0 .9-.1.1 0 .3 0 .4-.1l-9.8 9.8c-2 2-4.7 3.1-7.5 3.1C5.2 51.5.5 46.7.5 40.9c0-2.8 1.1-5.5 3.1-7.5l13.8-13.9c4-4 11-4 15 0l-2.3 2.3c-2.8-2.8-7.7-2.8-10.5 0L5.9 35.7C4.5 37.1 3.7 39 3.7 41c0 4.1 3.3 7.4 7.4 7.4 2-.1 3.9-.8 5.3-2.2z"/></svg>