<svg xmlns="http://www.w3.org/2000/svg" viewBox="0 0 52 52"><path d="M34.3.3l10.8 10.8c.2.2.3.5.3.8v35.7c0 2.4-1.9 4.3-4.3 4.3H10.8c-2.4 0-4.3-1.9-4.3-4.3V4.3C6.5 1.9 8.4 0 10.8 0h22.8c.3 0 .5.1.7.3zm7.5 10.5l-7.1-7.1v5c0 1.2 1 2.2 2.2 2.2h4.9zm-.6 39c1.2 0 2.2-1 2.2-2.2V13h-6.5c-2.4 0-4.3-1.9-4.3-4.3V2.2H10.8c-1.2 0-2.2 1-2.2 2.2v43.3c0 1.2 1 2.2 2.2 2.2h30.4zM28.9 29.6c.6.6 1.6 1.4 2.6 2.2 1.5-.3 2.7-.4 3.1-.4 1.4 0 4.3 0 4.3 2.6 0 1.3-.6 2.9-3.2 2.9-1 0-3-1.3-4.8-2.7-2.3.4-5.1 1.1-7.4 2-2.2 4.5-5.3 7.2-7.3 7.2-1.6 0-3.2-1-3.2-2.5 0-2.1 2.3-3.2 5.7-4.9h.1c.7-.4 1.5-.7 2.4-1.1.2-.1.5-.2.7-.3.3-.7.6-1.5.9-2.3l.3-.9c.5-1.4.9-2.6 1.2-3.7-1.8-2.3-2.6-4.2-2.6-5.9 0-3.7 1.8-4.4 3.2-4.4 2 0 3.3.7 3.3 4.3 0 .8-.4 2.4-1.4 5.5.6.7 1.3 1.5 2.1 2.4zM15.2 40.8c0 .1.5.3 1.1.3.6 0 2.2-1.1 3.9-3.5-.1 0-.2.1-.2.1-.1 0-.1.1-.2.1-2.3 1.2-4.6 2.3-4.6 3zm9.7-21.3c-.4 0-1.1 0-1.1 2.3 0 .8.5 2 1.3 3.3.6-1.8.9-2.9.9-3.4 0-2.2-.3-2.2-1.1-2.2zm0 13.3c-.1.2-.1.4-.2.6 1.4-.4 2.8-.8 4.1-1.1-.7-.6-1.2-1-1.4-1.2l-1.5-1.5c-.3.8-.5 1.6-.9 2.6 0 .2-.1.4-.1.6zm10.9 1.9c1 0 1-.2 1-.7-.1-.2-.6-.4-2.2-.4-.1 0-.4 0-.7.1 1 .5 1.6.9 1.9 1z"/></svg>