<svg width="12" height="12" xmlns="http://www.w3.org/2000/svg"><path fill-rule="evenodd" clip-rule="evenodd" d="M6 0C2.684 0 0 2.684 0 6s2.684 6 6 6 6-2.684 6-6-2.684-6-6-6zm0 11.063A5.06 5.06 0 01.937 6 5.06 5.06 0 016 .937 5.06 5.06 0 0111.063 6 5.06 5.06 0 016 11.063zm0-1.606a.586.586 0 100-1.172.586.586 0 000 1.172zm-1.875-4.57c0-1.034.841-1.875 1.875-1.875s1.875.84 1.875 1.875c0 .872-.598 1.607-1.406 1.815v.763a.469.469 0 11-.938 0V6.293c0-.259.21-.469.469-.469A.939.939 0 006 3.95a.939.939 0 00-.938.938.469.469 0 11-.937 0z"/></svg>