<svg width="16" height="16" viewBox="0 0 16 16" xmlns="http://www.w3.org/2000/svg">
  <path fill-rule="evenodd" clip-rule="evenodd" d="M11.9312 0.698977C12.8624 -0.232992 14.3704 -0.232992 15.3016 0.698977C15.7489 1.14548 16 1.7509 16 2.38333C16 3.01575 15.7489 3.62199 15.3016 4.0685L8.34639 11.0245C8.40598 10.1418 8.11199 9.2392 7.43666 8.56388C6.76212 7.88933 5.85954 7.59455 4.97684 7.65336L11.9312 0.698977ZM1.18482 12.4257C1.14292 11.5819 1.1022 10.7617 2.17618 9.68812C3.3179 8.54561 5.16992 8.54561 6.31243 9.68812C7.45493 10.8298 7.45493 12.6819 6.31243 13.8244C4.10209 16.0355 0 15.5143 0 15.5143C1.27486 14.239 1.22919 13.3191 1.18482 12.4257Z"/>
</svg>
