<svg width="16" height="16" viewBox="0 0 16 16" xmlns="http://www.w3.org/2000/svg">
  <path fill-rule="evenodd" clip-rule="evenodd" d="M14.794 8C14.794 7.66691 15.0639 7.39697 15.397 7.39697C15.7301 7.39697 16 7.66694 16 8C16 12.4111 12.4111 16 8 16C3.58875 16 0 12.4111 0 8C0 3.58875 3.58875 0 8 0C8.33306 0 8.60303 0.269938 8.60303 0.603031C8.60303 0.936094 8.33306 1.20603 8 1.20603C4.25387 1.20603 1.20603 4.25387 1.20603 8C1.20603 11.7463 4.25387 14.794 8 14.794C11.7463 14.794 14.794 11.7463 14.794 8ZM14.6899 2.18637C14.9252 1.95118 15.3071 1.95159 15.5425 2.18737C15.7777 2.42315 15.7773 2.80506 15.5413 3.04021L7.86293 10.6985C7.74996 10.8111 7.59661 10.8744 7.43721 10.8744C7.43405 10.8744 7.43088 10.8744 7.42763 10.8743C7.42654 10.8743 7.42544 10.8742 7.42433 10.8742C7.2603 10.8708 7.10474 10.8006 6.99358 10.6798L3.95839 7.38352C3.73286 7.13849 3.74855 6.75699 3.99358 6.53146C4.2388 6.30596 4.62011 6.32184 4.84564 6.56665L7.45571 9.40143L14.6899 2.18637Z" fill="#666666"/>
</svg>
