<svg width="24" height="24" viewBox="0 0 24 24" xmlns="http://www.w3.org/2000/svg">
  <path fill-rule="evenodd" clip-rule="evenodd" d="M13.4065 1.40648C13.4065 0.629755 12.7767 0 12 0C11.2233 0 10.5935 0.629755 10.5935 1.40648V5.04801H13.4065V1.40648ZM23.4203 6.2074H0.57971C0.259737 6.20785 0.000452899 6.46713 0 6.78711V10.3446C0.000452899 10.6648 0.259737 10.9241 0.57971 10.9243H23.4203C23.7403 10.9241 23.9995 10.6648 24 10.3446V6.78711C23.9995 6.46713 23.7403 6.20785 23.4203 6.2074ZM5.20646 23.3379C4.00742 23.3426 3.00425 22.4289 2.89759 21.2349L2.04297 12.0838H21.9571L21.1023 21.2349C20.9956 22.4289 19.9925 23.3426 18.7936 23.3379H5.20646ZM16.9655 14.897C16.6455 14.897 16.3858 15.1565 16.3858 15.4767V19.6142C16.3858 19.9341 16.6455 20.1939 16.9655 20.1939C17.2857 20.1939 17.5452 19.9341 17.5452 19.6142V15.4767C17.5452 15.1565 17.2857 14.897 16.9655 14.897ZM11.9999 14.897C11.6797 14.897 11.4202 15.1565 11.4202 15.4767V19.6142C11.4202 19.9341 11.6797 20.1939 11.9999 20.1939C12.3201 20.1939 12.5797 19.9341 12.5797 19.6142V15.4767C12.5797 15.1565 12.3201 14.897 11.9999 14.897ZM7.03436 14.897C6.71416 14.897 6.45465 15.1565 6.45465 15.4767V19.6142C6.45465 19.9341 6.71416 20.1939 7.03436 20.1939C7.35434 20.1939 7.61407 19.9341 7.61407 19.6142V15.4767C7.61407 15.1565 7.35434 14.897 7.03436 14.897Z"/>
</svg>
