<svg width="16" height="16" viewBox="0 0 16 16" xmlns="http://www.w3.org/2000/svg">
  <path fill-rule="evenodd" clip-rule="evenodd" d="M10.2792 0.409593C10.0166 0.147316 9.66059 0 9.28942 0C8.91826 0 8.56227 0.147316 8.29965 0.409593L5.46832 3.24058C5.34035 3.37251 5.26941 3.54947 5.27081 3.73327C5.27221 3.91706 5.34585 4.09292 5.47582 4.22288C5.60579 4.35284 5.78166 4.42647 5.96545 4.42786C6.14924 4.42925 6.32621 4.35829 6.45813 4.23032L9.28939 1.3994L9.98158 2.09138L1.43466 10.6449L5.36143 14.5717L14.4049 5.52125C14.5338 5.38779 14.6065 5.20985 14.6079 5.02428C14.6065 4.84078 14.5337 4.66505 14.4049 4.53431C12.8597 2.98907 11.5629 1.69278 10.8263 0.956513L10.2792 0.409593ZM0.0137466 15.1597C-0.00888834 15.2732 -0.00350763 15.3906 0.0294229 15.5016C0.0623535 15.6125 0.121841 15.7138 0.202735 15.7966C0.285192 15.8781 0.386453 15.9379 0.497555 15.9709C0.608656 16.0039 0.726172 16.0089 0.839698 15.9856L4.1435 15.3277L0.671708 11.8559L0.0137466 15.1597ZM13.8099 0.789538L15.2099 2.18946C15.341 2.32161 15.4146 2.50025 15.4146 2.68643C15.4146 2.87261 15.341 3.05124 15.2099 3.1834L14.6289 3.76436L12.235 1.3705L12.816 0.789538C12.9482 0.658399 13.1268 0.584811 13.313 0.584811C13.4992 0.584811 13.6778 0.658399 13.8099 0.789538Z"/>
</svg>
