<svg xmlns="http://www.w3.org/2000/svg" viewBox="0 0 52 52">
	<path d="M52,20.1c0-0.4-0.2-0.7-0.5-0.9L47.2,16v-3c0-0.3-0.1-0.6-0.3-0.8L35.1,0.3C34.9,0.1,34.6,0,34.3,0H9.5C6.9,0,4.8,2.1,4.8,4.7V16l-4.2,3.2C0.2,19.4,0,19.7,0,20.1c0,0,0,0,0,0h0v27.2C0,49.9,2.1,52,4.8,52h42.5c2.6,0,4.7-2.1,4.7-4.7L52,20.1L52,20.1C52,20.1,52,20.1,52,20.1z M47.2,18.9l1.6,1.2c-0.4,0.3-1,0.8-1.6,1.2V18.9z M35.4,4l7.8,7.8h-5.4c-1.3,0-2.4-1.1-2.4-2.4V4z M7.1,4.7c0-1.3,1.1-2.4,2.4-2.4h23.6v7.1c0,2.6,2.1,4.7,4.7,4.7h7.1v9c-5.5,4.3-13.8,10.9-17.3,13.9c-0.3,0.3-0.9,0.7-1.6,0.7c-0.6,0-1.1-0.2-1.6-0.7C20.9,34,12.6,27.5,7.1,23.2V4.7z M4.8,18.9v2.4c-0.6-0.5-1.2-0.9-1.6-1.2L4.8,18.9z M49.6,47.3c0,1.3-1.1,2.4-2.4,2.4H4.8c-1.3,0-2.4-1.1-2.4-2.4V22.5c4.9,3.8,16.3,12.8,20.4,16.4c0.9,0.8,2,1.3,3.2,1.3c1.1,0,2.3-0.5,3.2-1.3c4.2-3.8,15.9-12.8,20.4-16.4V47.3z"/>
</svg>
