<svg width="15" height="16" viewBox="0 0 15 16" xmlns="http://www.w3.org/2000/svg">
  <path fill-rule="evenodd" clip-rule="evenodd" d="M2.19769 1.02128C1.549 1.02128 1.02128 1.54904 1.02128 2.19772C1.02128 2.4447 1.09794 2.67404 1.22853 2.86356H0.104C0.036972 2.65334 0 2.42986 0 2.19772C0 0.985872 0.985874 0 2.19769 0C2.51108 0 2.81471 0.0652255 3.10009 0.193872L5.17134 1.12783V2.2481L2.68031 1.1249C2.5278 1.05614 2.36541 1.02128 2.19769 1.02128ZM12.4678 0C12.1544 0 11.8508 0.0652255 11.5654 0.193906L9.49414 1.12783V2.24814L11.9851 1.12494C12.1377 1.05614 12.3001 1.02128 12.4678 1.02128C13.1165 1.02128 13.6442 1.54904 13.6442 2.19772C13.6442 2.44473 13.5676 2.67408 13.437 2.86356H14.5615C14.6285 2.65338 14.6655 2.42989 14.6655 2.19772C14.6655 0.985872 13.6796 0 12.4678 0ZM14.0878 3.8848H0.577694V7.25896H14.0878V3.8848ZM6.19259 1.22165H8.47283V2.86352H6.19259V1.22165ZM13.4069 8.28024H1.25856V16H13.4069V8.28024Z"/>
</svg>
