<svg xmlns="http://www.w3.org/2000/svg" viewBox="0 0 52 52">
	<path d="M33.4,3.6c2-2,4.7-3.1,7.5-3.1c5.9,0,10.6,4.8,10.6,10.6c0,2.8-1.1,5.5-3.1,7.5L34.5,32.5c-2,2-4.7,3.1-7.5,3.1c-2.8,0-5.5-1.1-7.5-3.1l2.3-2.3c2.8,2.8,7.7,2.8,10.5,0l13.8-13.9c1.4-1.4,2.2-3.3,2.2-5.3c0-4.1-3.3-7.4-7.4-7.4c-2,0-3.8,0.8-5.2,2.2l-7.7,7.8c-1-0.2-1.9-0.4-2.9-0.4c-0.3,0-0.6,0-0.9,0.1c-0.1,0-0.3,0-0.4,0.1L33.4,3.6z M16.4,46.2l7.7-7.7c1,0.2,2,0.3,3,0.3c0.3,0,0.6,0,0.9-0.1c0.1,0,0.3,0,0.4-0.1l-9.8,9.8c-2,2-4.7,3.1-7.5,3.1c-5.9,0-10.6-4.8-10.6-10.6c0-2.8,1.1-5.5,3.1-7.5l13.8-13.9c4-4,11-4,15,0l-2.3,2.3c-2.8-2.8-7.7-2.8-10.5,0L5.9,35.7c-1.4,1.4-2.2,3.3-2.2,5.3c0,4.1,3.3,7.4,7.4,7.4C13.1,48.3,15,47.6,16.4,46.2z"/>
</svg>
