<svg xmlns="http://www.w3.org/2000/svg" viewBox="0 0 52 52">
	<path d="M34.3,0.3l10.8,10.8c0.2,0.2,0.3,0.5,0.3,0.8v35.7c0,2.4-1.9,4.3-4.3,4.3H10.8c-2.4,0-4.3-1.9-4.3-4.3V4.3C6.5,1.9,8.4,0,10.8,0h22.8C33.9,0,34.1,0.1,34.3,0.3z M41.8,10.8l-7.1-7.1v5c0,1.2,1,2.2,2.2,2.2H41.8z M41.2,49.8c1.2,0,2.2-1,2.2-2.2V13h-6.5c-2.4,0-4.3-1.9-4.3-4.3V2.2H10.8c-1.2,0-2.2,1-2.2,2.2v43.3c0,1.2,1,2.2,2.2,2.2H41.2z M28.9,29.6c0.6,0.6,1.6,1.4,2.6,2.2c1.5-0.3,2.7-0.4,3.1-0.4c1.4,0,4.3,0,4.3,2.6c0,1.3-0.6,2.9-3.2,2.9c-1,0-3-1.3-4.8-2.7c-2.3,0.4-5.1,1.1-7.4,2c-2.2,4.5-5.3,7.2-7.3,7.2c-1.6,0-3.2-1-3.2-2.5c0-2.1,2.3-3.2,5.7-4.9l0.1,0c0.7-0.4,1.5-0.7,2.4-1.1c0.2-0.1,0.5-0.2,0.7-0.3c0.3-0.7,0.6-1.5,0.9-2.3c0.1-0.3,0.2-0.6,0.3-0.9c0.5-1.4,0.9-2.6,1.2-3.7c-1.8-2.3-2.6-4.2-2.6-5.9c0-3.7,1.8-4.4,3.2-4.4c2,0,3.3,0.7,3.3,4.3c0,0.8-0.4,2.4-1.4,5.5C27.4,27.9,28.1,28.7,28.9,29.6z M15.2,40.8c0,0.1,0.5,0.3,1.1,0.3c0.6,0,2.2-1.1,3.9-3.5c-0.1,0-0.2,0.1-0.2,0.1c-0.1,0-0.1,0.1-0.2,0.1C17.5,39,15.2,40.1,15.2,40.8z M24.9,19.5c-0.4,0-1.1,0-1.1,2.3c0,0.8,0.5,2,1.3,3.3c0.6-1.8,0.9-2.9,0.9-3.4C26,19.5,25.7,19.5,24.9,19.5z M24.9,32.8c-0.1,0.2-0.1,0.4-0.2,0.6c1.4-0.4,2.8-0.8,4.1-1.1c-0.7-0.6-1.2-1-1.4-1.2c-0.5-0.5-1-1-1.5-1.5c-0.3,0.8-0.5,1.6-0.9,2.6C25,32.4,24.9,32.6,24.9,32.8z M35.8,34.7c1,0,1-0.2,1-0.7c-0.1-0.2-0.6-0.4-2.2-0.4c-0.1,0-0.4,0-0.7,0.1C34.9,34.2,35.5,34.6,35.8,34.7z"/>
</svg>
