<svg width="12" height="12" viewBox="0 0 12 12" xmlns="http://www.w3.org/2000/svg">
  <path fill-rule="evenodd" clip-rule="evenodd" d="M7.70939 0.307195C7.51242 0.110487 7.24543 0 6.96706 0C6.68868 0 6.42169 0.110487 6.22473 0.307195L4.10123 2.43043C4.00525 2.52938 3.95205 2.6621 3.9531 2.79995C3.95415 2.93779 4.00938 3.06969 4.10686 3.16716C4.20433 3.26463 4.33624 3.31985 4.47408 3.32089C4.61192 3.32193 4.74464 3.26872 4.84359 3.17274L6.96703 1.04955L7.48617 1.56854L1.07599 7.98371L4.02106 10.9288L10.8037 4.14094C10.9004 4.04084 10.9549 3.90739 10.9559 3.76821C10.9548 3.63059 10.9002 3.49878 10.8037 3.40073C9.64596 2.24303 8.6742 1.27165 8.12148 0.719148L7.70939 0.307195ZM0.0103099 11.3698C-0.00666625 11.4549 -0.00263072 11.5429 0.0220672 11.6262C0.0467651 11.7094 0.091381 11.7854 0.152052 11.8475C0.213894 11.9086 0.28984 11.9534 0.373166 11.9782C0.456492 12.0029 0.544629 12.0067 0.629773 11.9892L3.10763 11.4958L0.50378 8.89191L0.0103099 11.3698ZM10.3575 0.592125L11.4074 1.64206C11.5057 1.74118 11.5609 1.87516 11.5609 2.01479C11.5609 2.15443 11.5057 2.2884 11.4074 2.38752L10.9717 2.82324L9.17627 1.02785L9.612 0.592125C9.71112 0.493771 9.84509 0.43858 9.98473 0.43858C10.1244 0.43858 10.2583 0.493771 10.3575 0.592125Z"/>
</svg>
