<svg width="20" height="20" viewBox="0 0 20 20" xmlns="http://www.w3.org/2000/svg">
  <g>
    <path d="M5.99999 0H14V6H5.99999V0Z"/>
    <path d="M2.90001 0H4.00003V8.00001H16V0H20V20H6.35795e-07V2.90001L2.90001 0ZM10 18C12.2 18 14 16.2 14 14C14 11.8 12.2 10 10 10C7.80004 10 6.00004 11.8 6.00004 14C6 16.2 7.79999 18 10 18Z"/>
    <path d="M9.99975 16C8.89518 16 7.99975 15.1046 7.99975 14C7.99975 12.8954 8.89518 12 9.99975 12C11.1043 12 11.9998 12.8954 11.9998 14C11.9998 15.1046 11.1043 16 9.99975 16Z"/>
  </g>
</svg>
