<svg version="1.0" xmlns="http://www.w3.org/2000/svg" width="186.667" height="186.667" viewBox="0 0 140 140"><path d="M.6 21.7c.3 12 .7 23.9.8 26.5.3 8.9 1.6 6.1 1.7-3.8.1-5.4.3-14.2.4-19.4.2-5.2.4-12 .4-15.1L4 4.3l21.3.3c42.3.5 52.7.9 52.7 1.6 0 .5-.6.8-1.3.8C72.8 7 44 30.6 44 33.8c0 .6-.4 1.2-.9 1.4-2.6 1-14.2 22.1-12.8 23.4.3.3-.3 3.1-1.4 6.2-4.4 12.9-4.3 23.4.3 33.2 2.2 4.7 8.7 13 10.1 13 .3 0 .3-1.9.1-4.3-.3-3.6.1-5.2 2.8-9.3C48.6 87.6 60 78.9 70 76.1c10.1-2.8 25-1.4 33.8 3.1 12.4 6.3 20.1 22.6 18.9 40.3-.3 3.8-.6 7-.7 7-.2 0-.8 3-1.3 6.5-.4 2.8-1.4 3.4-5.3 3.6-3 .2-3.4 0-2.9-1.7.3-1 .7-2.8 1-3.8 3.4-11.8 2.6-24.6-2.1-34.9-1.9-4-2.9-3.7-1.3.4 2.7 7 .7 24-4.3 35.6l-2 4.8-5.2.1c-2.8.1-6.6.2-8.4.2-6.3.1-3.1 1.7 3.6 1.8 3.7 0 15.6.3 26.4.6l19.7.5V0H-.1l.7 21.7zm130-14.8c.8.1 1.3 3.2 1.4 9.3.1 5.1.3 13.7.5 19l.3 9.8-3.1.1c-7.1.2-27 1.7-32.1 2.4C89.5 48.6 85 49 85 48.7c0-.2 2.9-2.3 6.5-4.6 9-6 8.6-6.2-2.8-1.2-5.6 2.4-6.8 2.1-6.3-1.9.3-3.1 3.9-8.3 5-7.3.3.3.6-.1.6-1 0-.8.3-1.7.8-1.9.4-.2 2.7-2.5 5.2-5.1 4.4-4.7 5.1-6.2 1.2-3-1.1 1-3.7 3.2-5.9 5-2.1 1.7-4.9 4.1-6.3 5.3-4.7 4.2-9.2 7.4-10.6 7.6-.8.1-3.7 2.5-6.5 5.3-4.5 4.5-5.1 4.9-5.6 3.1-.8-2.9-1.4-2.5-4.8 2.7-1.6 2.6-4.6 5.5-6.5 6.5-4.1 2.1-14.6 2.5-15.3.5C33.2 57.4 38 48 39.3 48c.4 0 .7-.5.7-1 0-2.6 13.1-15.5 22.5-22.2C68.6 20.5 83 12.5 83 13.5c0 .2 2.7-.7 6-2s6-2.2 6-2c0 .3 1.2 0 2.6-.6 1.5-.5 4.3-1.2 6.3-1.5 2-.3 3.8-.8 4-1 .3-.3 18.5.1 22.7.5zm-19 54c6.9 2.5 13.5 6.3 18.4 10.8 3.7 3.2 3.9 3.7 4.2 10.3.2 3.9.1 7-.2 7-.3 0-2.1-2.8-4-6.2-6.5-11.4-15.9-18.4-28.6-21.4-12.9-3-13.1-3.2-4.1-2.8 5.1.2 11 1.2 14.3 2.3zm-71.4 6.3c-.7.7-1.2.8-1.2.2 0-1.4 1.2-2.6 1.9-1.9.2.3-.1 1.1-.7 1.7zm38.7 3.2c-.2.2-2.4.5-4.9.7-2.5.1-4.9.5-5.5.8-.5.3-1.6.6-2.2.7-2 .3-13.6 6.1-16.1 8.1-9.1 7-15.2 14.8-15.2 19.5 0 4.1-1.2 3.4-3.7-2-3.3-7.2-4.1-10.4-3.7-15.8.6-10.5 2.1-14.8 2.2-6.7.1 7.9.5 9.3 2.9 9.9 1.4.4 3.6-.4 6.5-2.4 5.9-4 13.3-8 15.5-8.4 1-.2 2-.6 2.3-1 .3-.4 1.7-.9 3-1.2 1.4-.3 3.6-.8 5-1.1 1.4-.4 4.8-.9 7.5-1.2 2.8-.3 5.2-.7 5.4-.9.2-.2.7-.2.9.1.3.3.3.7.1.9z"/><path d="M1.6 56.5c.4.8.8 1.5 1 1.5.2 0 .4-.7.4-1.5S2.6 55 2 55c-.5 0-.7.7-.4 1.5zm80.2 81.7c-.9.5-.6.7.9.5 1.2-.2 2.5-.6 2.8-.8.8-.9-2.3-.6-3.7.3z"/></svg>