<svg xmlns="http://www.w3.org/2000/svg" viewBox="0 0 56 56">
<path d="M28.2,49.5c-0.8,0-1.7-0.2-2.4-0.7c-3.2-2.1-9.4-5.8-11.8-7.2c-3.9-2.3-3.5-8.1-3.5-8.4l0-19.5c0-0.6,0.4-1,1-1c10.6,0,15.9-5.9,16-6c0.2-0.2,0.5-0.3,0.8-0.3l0,0c0.3,0,0.6,0.1,0.8,0.3c0.1,0.1,5.4,6,16,6c0.6,0,1,0.4,1,1v19.6c0,0.2,0.5,6-3.4,8.3c0,0,0,0,0,0c-2.5,1.4-8.7,5.2-11.8,7.2C29.9,49.3,29.1,49.5,28.2,49.5z M12.5,14.8v18.6c0,0.1-0.3,4.9,2.5,6.5c2.4,1.4,8.7,5.2,11.9,7.2c0.8,0.5,1.9,0.5,2.7,0c3.2-2,9.4-5.8,11.9-7.2c2.8-1.6,2.4-6.4,2.4-6.5l0-18.7c-8.7-0.3-13.9-4.2-15.7-5.9C26.4,10.6,21.2,14.5,12.5,14.8z M42,40.8L42,40.8L42,40.8z"/>
<g>
	<path d="M24.8,33h-1.2v-7.8c-0.4,0.3-0.7,0.6-1.2,0.9c-0.4,0.3-0.8,0.5-1.3,0.6v-1.2c0.7-0.3,1.3-0.7,1.8-1.2c0.4-0.4,0.8-0.8,1.1-1.3h0.8L24.8,33z"/>
	<path d="M24.8,33.3h-1.2c-0.1,0-0.3-0.1-0.3-0.3v-7.3c-0.3,0.2-0.5,0.4-0.8,0.5c-0.4,0.3-0.9,0.5-1.3,0.7c-0.1,0-0.2,0-0.2,0c-0.1,0-0.1-0.1-0.1-0.2v-1.2c0-0.1,0.1-0.2,0.1-0.2c0.6-0.3,1.2-0.7,1.7-1.1c0.4-0.4,0.8-0.8,1-1.2c0-0.1,0.1-0.1,0.2-0.1h0.8c0.1,0,0.2,0.1,0.3,0.2l0,10c0,0.1,0,0.1-0.1,0.2C25,33.2,24.9,33.3,24.8,33.3z M23.8,32.8h0.7l0-9.5h-0.4c-0.3,0.5-0.6,0.9-1.1,1.2c-0.5,0.5-1.1,0.8-1.7,1.1v0.7c0.3-0.1,0.6-0.3,0.9-0.5c0.4-0.2,0.8-0.5,1.1-0.8c0.1-0.1,0.2-0.1,0.3,0c0.1,0,0.1,0.1,0.1,0.2V32.8z"/>
</g>
<g>
	<path d="M34.2,31.8V33h-6.6c0-0.3,0-0.6,0.1-0.8c0.2-0.5,0.5-0.9,0.8-1.3c0.5-0.6,1-1.1,1.6-1.5c0.8-0.6,1.6-1.3,2.2-2.1c0.3-0.4,0.5-0.9,0.6-1.5c0-0.5-0.2-0.9-0.5-1.2C32,24.1,31.5,24,31,24c-0.5,0-1,0.2-1.4,0.5C29.2,24.9,29,25.5,29,26l-1.3-0.1c0-0.8,0.4-1.6,1-2.2c0.6-0.5,1.4-0.8,2.3-0.7c0.8,0,1.7,0.2,2.3,0.8c0.6,0.5,0.9,1.2,0.8,2c0,0.4-0.1,0.8-0.3,1.2c-0.2,0.4-0.5,0.9-0.8,1.2c-0.6,0.6-1.2,1.2-1.9,1.8c-0.7,0.6-1.2,1-1.4,1.3c-0.2,0.2-0.4,0.4-0.5,0.7L34.2,31.8z"/>
	<path d="M34.2,33.3h-6.6c-0.1,0-0.2-0.1-0.3-0.2c0-0.3,0-0.6,0.2-0.9c0.2-0.5,0.5-1,0.9-1.4c0.5-0.6,1.1-1.1,1.6-1.6c0.8-0.6,1.5-1.3,2.2-2.1c0.3-0.4,0.5-0.8,0.5-1.3c0-0.4-0.2-0.8-0.4-1c-0.3-0.3-0.8-0.4-1.2-0.4c-0.5,0-0.9,0.1-1.3,0.5c-0.3,0.3-0.5,0.8-0.5,1.3c0,0.1,0,0.1-0.1,0.2S29,26.3,29,26.2l-1.3-0.1c-0.1,0-0.2-0.1-0.2-0.3c0-0.9,0.4-1.7,1.1-2.3c0.7-0.6,1.6-0.8,2.4-0.8c0.9,0,1.8,0.3,2.4,0.9c0.6,0.6,0.9,1.4,0.9,2.2c0,0.4-0.1,0.9-0.3,1.3c-0.2,0.5-0.5,0.9-0.9,1.3c-0.6,0.6-1.2,1.2-1.9,1.8c-0.7,0.6-1.2,1-1.4,1.2c-0.1,0.1-0.1,0.2-0.2,0.2l4.5,0c0.1,0,0.1,0,0.2,0.1s0.1,0.1,0.1,0.2V33C34.4,33.1,34.3,33.3,34.2,33.3z M27.8,32.8h6.1v-0.7l-4.7,0c-0.1,0-0.2,0-0.2-0.1c0-0.1,0-0.2,0-0.3c0.2-0.3,0.3-0.5,0.6-0.7c0.2-0.2,0.7-0.6,1.4-1.3c0.7-0.5,1.3-1.1,1.9-1.7c0.3-0.3,0.6-0.7,0.8-1.2c0.1-0.3,0.2-0.7,0.2-1.1c0-0.7-0.3-1.3-0.8-1.8c-0.6-0.5-1.3-0.8-2.1-0.7c-0.8,0-1.5,0.2-2.1,0.7c-0.5,0.5-0.8,1.1-0.9,1.7l0.8,0.1c0-0.5,0.3-1,0.6-1.4c0.4-0.4,1-0.6,1.6-0.6c0.5,0,1.1,0.2,1.5,0.5c0.4,0.4,0.6,0.9,0.6,1.4c0,0.6-0.3,1.2-0.6,1.6c-0.7,0.8-1.4,1.5-2.3,2.2c-0.6,0.4-1.1,0.9-1.6,1.5c-0.3,0.4-0.6,0.8-0.8,1.3C27.9,32.4,27.8,32.6,27.8,32.8z"/>
</g>
</svg>
