<svg xmlns="http://www.w3.org/2000/svg" viewBox="0 0 56 56">
<path d="M28.1,49.6c-1.7,0-3.2-0.6-4.4-1.8c0,0,0,0,0,0l-1.4-1.4c-0.8-0.8-1.9-1.2-3-1.2c0,0,0,0,0,0h-2c-3.4,0-6.2-2.8-6.2-6.2v-2c0-1.1-0.5-2.2-1.2-3l-1.5-1.4c-2.5-2.5-2.5-6.4,0-8.8l1.5-1.5c0.8-0.8,1.2-1.9,1.2-3v-2c0-3.4,2.8-6.2,6.2-6.2h2c0,0,0,0,0,0c1.1,0,2.2-0.4,3-1.2l1.4-1.4c1.2-1.2,2.7-1.8,4.4-1.8c0,0,0,0,0,0c1.7,0,3.2,0.6,4.4,1.8c0,0,0,0,0.1,0.1l1.4,1.4c0.8,0.8,1.9,1.2,3,1.2c0,0,0,0,0,0h2c3.4,0,6.2,2.8,6.2,6.2v2c0,1.1,0.4,2.2,1.2,3l1.5,1.4c2.5,2.4,2.5,6.3,0.1,8.8c0,0,0,0,0,0l-1.5,1.5c-0.8,0.8-1.2,1.9-1.2,3v2c0,3.4-2.8,6.2-6.2,6.2h-2c0,0,0,0,0,0c-1.1,0-2.2,0.4-3,1.2l-1.5,1.4C31.3,48.9,29.7,49.6,28.1,49.6C28.1,49.6,28.1,49.6,28.1,49.6z M25.1,46.4c0.8,0.8,1.9,1.2,3,1.2c0,0,0,0,0,0c1.1,0,2.2-0.4,3-1.2l1.5-1.4c1.2-1.2,2.7-1.8,4.4-1.8c0,0,0,0,0,0h2c2.3,0,4.2-1.9,4.2-4.2v-2c0-1.7,0.6-3.2,1.8-4.4l1.5-1.5c1.6-1.7,1.6-4.3-0.1-6l-1.5-1.5c-1.2-1.2-1.8-2.7-1.8-4.4v-2c0-2.3-1.9-4.2-4.2-4.2h-2c0,0,0,0,0,0c-1.7,0-3.2-0.6-4.4-1.8L31,9.7c0,0,0,0,0,0c-0.8-0.8-1.9-1.2-3-1.2c0,0,0,0,0,0c-1.1,0-2.2,0.4-3,1.2l-1.5,1.5c-1.2,1.2-2.7,1.8-4.4,1.8c0,0,0,0,0,0h-2c-2.3,0-4.2,1.9-4.2,4.2v2c0,1.7-0.6,3.2-1.8,4.4L9.6,25c-1.7,1.7-1.7,4.3,0,6l1.5,1.4c1.2,1.2,1.8,2.8,1.8,4.4v2c0,2.3,1.9,4.2,4.2,4.2h2c0,0,0,0,0,0c1.7,0,3.2,0.6,4.4,1.8L25.1,46.4C25.1,46.4,25.1,46.4,25.1,46.4z"/>
<path d="M22.3,37.6c-0.2,0-0.4-0.1-0.6-0.2c-0.5-0.3-0.6-0.9-0.3-1.4L33,18.9c0.3-0.5,0.9-0.6,1.4-0.3c0.5,0.3,0.6,0.9,0.3,1.4L23.1,37.1C22.9,37.4,22.6,37.6,22.3,37.6z"/>
<path d="M23.1,26.9c-2.3,0-4.3-1.9-4.3-4.3s1.9-4.3,4.3-4.3s4.3,1.9,4.3,4.3S25.4,26.9,23.1,26.9z M23.1,20.4c-1.2,0-2.3,1-2.3,2.3s1,2.3,2.3,2.3s2.3-1,2.3-2.3S24.3,20.4,23.1,20.4z"/>
<path d="M33,37.6c-2.3,0-4.3-1.9-4.3-4.3s1.9-4.3,4.3-4.3s4.3,1.9,4.3,4.3S35.3,37.6,33,37.6z M33,31.1c-1.2,0-2.3,1-2.3,2.3s1,2.3,2.3,2.3s2.3-1,2.3-2.3S34.2,31.1,33,31.1z"/>
</svg>
