<svg xmlns="http://www.w3.org/2000/svg" viewBox="0 0 56 56">
<path d="M28,49.4C16.2,49.4,6.6,39.8,6.6,28S16.2,6.6,28,6.6S49.4,16.2,49.4,28S39.8,49.4,28,49.4z M28,8.6C17.3,8.6,8.6,17.3,8.6,28c0,10.7,8.7,19.4,19.4,19.4c10.7,0,19.4-8.7,19.4-19.4C47.4,17.3,38.7,8.6,28,8.6z"/>
<path d="M44.1,35.1c-0.1,0-0.2,0-0.4-0.1c-0.5-0.2-0.8-0.8-0.6-1.3c1.4-3.7,1.4-7.8,0-11.5C40,13.9,30.6,9.7,22.3,12.8C13.9,16,9.7,25.4,12.8,33.8c0.2,0.5-0.1,1.1-0.6,1.3c-0.5,0.2-1.1-0.1-1.3-0.6C7.4,25.1,12.2,14.5,21.6,11C31,7.4,41.5,12.2,45,21.6c1.6,4.2,1.6,8.7,0,12.9C44.9,34.9,44.5,35.1,44.1,35.1z"/>
<path d="M28,15.7c-0.6,0-1-0.4-1-1v-4c0-0.6,0.4-1,1-1c0.6,0,1,0.4,1,1v4C29,15.3,28.6,15.7,28,15.7z"/>
<g>
	<path d="M22.5,32.1l1.1,0.3c-0.2,0.8-0.6,1.6-1.3,2.2c-0.7,0.5-1.5,0.8-2.3,0.7c-0.8,0-1.6-0.2-2.3-0.6c-0.6-0.4-1.1-1-1.3-1.7c-0.3-0.7-0.4-1.5-0.4-2.3c0-0.8,0.2-1.6,0.5-2.4c0.3-0.6,0.8-1.2,1.5-1.5c0.6-0.4,1.4-0.5,2.1-0.5c0.8,0,1.6,0.2,2.2,0.7c0.6,0.5,1,1.1,1.2,1.9l-1.1,0.3c-0.1-0.5-0.5-1-0.9-1.4c-0.4-0.3-1-0.5-1.5-0.4c-0.6,0-1.2,0.1-1.7,0.5c-0.4,0.3-0.7,0.7-0.9,1.2c-0.2,0.5-0.3,1.1-0.3,1.7c0,0.7,0.1,1.3,0.3,1.9c0.2,0.5,0.5,1,1,1.2c0.5,0.3,1,0.5,1.5,0.4c0.6,0,1.2-0.2,1.6-0.6C22.1,33.3,22.4,32.7,22.5,32.1z"/>
	<path d="M19.8,35.5c-0.8,0-1.5-0.2-2.2-0.6c-0.7-0.4-1.1-1-1.4-1.8c-0.3-0.8-0.5-1.6-0.4-2.4c0-0.8,0.2-1.7,0.5-2.5c0.3-0.7,0.9-1.3,1.6-1.6c0.7-0.4,1.5-0.6,2.2-0.5c0.8,0,1.6,0.2,2.3,0.7c0.7,0.5,1.1,1.2,1.3,2c0,0.1,0,0.1,0,0.2c0,0-0.1,0.1-0.1,0.1l-1.1,0.3c-0.1,0-0.2,0-0.3-0.2c-0.1-0.5-0.4-0.9-0.8-1.3c-0.4-0.3-0.9-0.4-1.4-0.4c-0.6,0-1.1,0.1-1.6,0.4c-0.4,0.3-0.7,0.7-0.8,1.1c-0.2,0.5-0.3,1.1-0.3,1.6c0,0.6,0.1,1.3,0.3,1.9c0.2,0.5,0.5,0.9,0.9,1.1c0.4,0.3,0.9,0.4,1.4,0.4c0,0,0,0,0.1,0c0.5,0,1-0.2,1.4-0.5c0.4-0.4,0.7-0.9,0.8-1.5c0-0.1,0-0.1,0.1-0.1c0.1,0,0.1,0,0.2,0l1.1,0.3c0.1,0,0.2,0.1,0.2,0.3c-0.2,0.9-0.7,1.7-1.4,2.3c-0.7,0.5-1.6,0.8-2.4,0.8C20,35.5,19.9,35.5,19.8,35.5z M20.1,26.5c-0.7,0-1.4,0.2-2,0.5c-0.6,0.3-1.1,0.8-1.4,1.4c-0.3,0.7-0.5,1.5-0.5,2.3c0,0.8,0.1,1.5,0.4,2.3c0.3,0.6,0.7,1.2,1.3,1.6c0.6,0.4,1.4,0.6,2.2,0.5c0.8,0,1.6-0.2,2.2-0.7c0.6-0.5,1-1.1,1.2-1.8l-0.7-0.2c-0.1,0.6-0.4,1.1-0.9,1.5c-0.5,0.4-1.1,0.6-1.8,0.6c0,0,0,0,0,0c-0.6,0-1.1-0.2-1.6-0.5c-0.5-0.3-0.9-0.8-1.1-1.3c-0.2-0.6-0.3-1.3-0.3-2c0-0.6,0.1-1.2,0.3-1.7c0.2-0.5,0.5-1,1-1.3c0.5-0.4,1.2-0.6,1.8-0.5c0.6,0,1.2,0.1,1.7,0.5c0.4,0.4,0.7,0.8,0.9,1.3l0.7-0.2c-0.2-0.6-0.6-1.2-1.1-1.5C21.6,26.7,20.9,26.5,20.1,26.5C20.1,26.5,20.1,26.5,20.1,26.5z"/>
</g>
<g>
	<path d="M25.1,35.1v-8.7h3.3c0.4,0,0.9,0,1.3,0.1c0.4,0.1,0.7,0.2,1.1,0.4c0.3,0.2,0.5,0.5,0.7,0.8c0.5,1,0.3,2.2-0.4,3.1c-0.7,0.6-1.6,0.9-2.5,0.8h-2.2v3.5H25.1z M26.2,30.6h2.3c0.6,0.1,1.1-0.1,1.6-0.4c0.3-0.3,0.5-0.7,0.5-1.2c0-0.3-0.1-0.7-0.3-0.9c-0.2-0.3-0.4-0.4-0.7-0.5c-0.4-0.1-0.7-0.1-1.1-0.1h-2.2V30.6z"/>
	<path d="M26.2,35.4h-1.2c-0.1,0-0.2-0.1-0.2-0.2v-8.7c0-0.1,0.1-0.2,0.2-0.2h3.3c0.5,0,0.9,0,1.4,0.1c0.4,0.1,0.8,0.2,1.2,0.4c0.3,0.2,0.6,0.6,0.8,0.9c0.5,1.1,0.3,2.4-0.5,3.3c-0.8,0.7-1.8,1-2.7,0.8l-2,0v3.3C26.4,35.3,26.3,35.4,26.2,35.4z M25.3,34.9H26v-3.3c0-0.1,0.1-0.2,0.2-0.2h2.2c0.9,0.1,1.8-0.2,2.4-0.7c0.7-0.8,0.8-1.9,0.4-2.8c-0.1-0.3-0.4-0.6-0.6-0.8c-0.3-0.2-0.6-0.3-1-0.4c-0.4-0.1-0.9-0.1-1.3-0.1h-3.1V34.9z M28.7,30.8c-0.1,0-0.2,0-0.2,0l-2.2,0c-0.1,0-0.2-0.1-0.2-0.2v-3.1c0-0.1,0.1-0.2,0.2-0.2h2.2c0.4,0,0.7,0,1.1,0.1c0.4,0.1,0.7,0.3,0.9,0.6c0.2,0.3,0.3,0.7,0.3,1.1c0,0.5-0.2,1-0.5,1.3C29.7,30.6,29.2,30.8,28.7,30.8z M26.4,30.4h2c0.5,0,1-0.1,1.5-0.4c0.3-0.2,0.4-0.6,0.4-1c0-0.3-0.1-0.6-0.2-0.8c-0.1-0.2-0.4-0.4-0.6-0.4c-0.3-0.1-0.7-0.1-1-0.1h-2V30.4z"/>
</g>
<g>
	<path d="M38.9,26.4H40v5c0,0.7-0.1,1.4-0.3,2.1c-0.2,0.5-0.6,1-1.1,1.3c-0.6,0.3-1.3,0.5-2,0.5c-0.7,0-1.4-0.1-2-0.4c-0.5-0.3-0.9-0.7-1.1-1.2c-0.2-0.7-0.4-1.4-0.3-2.2v-5h1.2v5c0,0.6,0,1.1,0.2,1.7c0.1,0.4,0.4,0.6,0.7,0.8c0.4,0.2,0.8,0.3,1.3,0.3c0.7,0.1,1.3-0.1,1.8-0.6c0.4-0.6,0.6-1.4,0.5-2.2L38.9,26.4z"/>
	<path d="M36.5,35.5c-0.7,0-1.3-0.2-1.9-0.4c-0.6-0.3-1-0.8-1.2-1.3c-0.3-0.7-0.4-1.5-0.3-2.3v-5c0-0.1,0.1-0.2,0.2-0.2h1.1c0.1,0,0.2,0.1,0.2,0.2v5c0,0.6,0,1.1,0.2,1.6c0.1,0.3,0.3,0.5,0.6,0.7c0.3,0.2,0.7,0.3,1.1,0.3c0.6,0.1,1.2-0.1,1.7-0.5c0.4-0.6,0.6-1.3,0.5-2l0-5c0-0.1,0.1-0.2,0.2-0.2H40c0.1,0,0.2,0.1,0.2,0.2v5c0,0.7-0.1,1.5-0.3,2.1c-0.2,0.6-0.6,1.1-1.2,1.4c-0.6,0.4-1.4,0.5-2.1,0.5C36.6,35.5,36.5,35.5,36.5,35.5z M33.4,26.6v4.8c0,0.7,0.1,1.4,0.3,2.1c0.2,0.5,0.6,0.9,1,1.1c0.6,0.3,1.2,0.4,1.9,0.4c0.7,0,1.3-0.1,1.9-0.5c0.4-0.3,0.8-0.7,1-1.1c0.2-0.6,0.3-1.3,0.3-2v-4.8h-0.7l0,4.8c0.1,0.8-0.1,1.6-0.6,2.3c0,0,0,0,0,0c-0.5,0.5-1.3,0.7-2,0.6c-0.4,0-0.9-0.1-1.3-0.3c-0.4-0.2-0.7-0.5-0.8-0.9c-0.2-0.6-0.3-1.2-0.2-1.8v-4.8H33.4z M38.3,33.6L38.3,33.6L38.3,33.6z"/>
</g>
</svg>
