<svg xmlns="http://www.w3.org/2000/svg" viewBox="0 0 56 56">
<path d="M27.9,49.5c-0.9,0-1.7-0.2-2.4-0.7c-3.2-2.1-9.5-5.8-11.8-7.2c-3.9-2.3-3.5-8.1-3.5-8.4l0-19.5c0-0.6,0.4-1,1-1c10.6,0,15.9-5.9,16-6c0.2-0.2,0.5-0.3,0.8-0.3c0,0,0,0,0,0c0.3,0,0.6,0.1,0.8,0.3c0.1,0.1,5.4,6,16,6c0.6,0,1,0.4,1,1v19.6c0,0.2,0.5,6-3.4,8.3h0c-2.4,1.4-8.6,5.1-11.8,7.2C29.6,49.3,28.8,49.5,27.9,49.5z M12.2,14.8v18.6c0,0.1-0.3,4.9,2.5,6.5c2.3,1.4,8.6,5.1,11.8,7.2c0.8,0.5,1.9,0.5,2.8,0c3.2-2,9.4-5.8,11.9-7.2c2.8-1.7,2.5-6.4,2.4-6.5l0-18.7c-8.7-0.3-13.9-4.2-15.7-5.9C26.1,10.6,20.9,14.5,12.2,14.8z M41.7,40.8L41.7,40.8L41.7,40.8z"/>
<g>
	<path d="M27.3,31.8V33h-6.6c0-0.3,0-0.6,0.1-0.8c0.2-0.5,0.5-0.9,0.8-1.3c0.5-0.6,1-1.1,1.6-1.5c0.8-0.6,1.6-1.3,2.2-2.1c0.3-0.4,0.5-0.9,0.5-1.5c0-0.5-0.2-0.9-0.5-1.2c-0.4-0.3-0.9-0.5-1.4-0.5c-0.5,0-1,0.2-1.4,0.5c-0.4,0.4-0.5,0.9-0.5,1.5l-1.3-0.1c0-0.8,0.4-1.6,1-2.2c0.6-0.5,1.4-0.8,2.3-0.7c0.8,0,1.7,0.2,2.3,0.8c0.6,0.5,0.9,1.2,0.8,2c0,0.4-0.1,0.8-0.3,1.2c-0.2,0.4-0.5,0.9-0.8,1.2c-0.6,0.6-1.2,1.2-1.9,1.8c-0.7,0.6-1.2,1-1.4,1.3c-0.2,0.2-0.4,0.4-0.5,0.7L27.3,31.8z"/>
	<path d="M27.3,33.3h-6.6c-0.1,0-0.2-0.1-0.3-0.2c0-0.3,0-0.6,0.2-0.9c0.2-0.5,0.5-1,0.9-1.4c0.5-0.6,1.1-1.1,1.6-1.6c0.8-0.6,1.5-1.3,2.2-2.1c0.3-0.4,0.5-0.8,0.5-1.3c0-0.4-0.2-0.8-0.4-1c-0.3-0.3-0.7-0.5-1.2-0.4c-0.5,0-0.9,0.1-1.3,0.5c-0.3,0.3-0.5,0.8-0.4,1.3c0,0.1,0,0.1-0.1,0.2c-0.1,0.1-0.1,0.1-0.2,0.1l-1.3-0.1c-0.1,0-0.2-0.1-0.2-0.3c0-0.9,0.4-1.7,1.1-2.3c0.7-0.6,1.6-0.8,2.4-0.8c0.9,0,1.8,0.3,2.4,0.9c0.6,0.6,0.9,1.4,0.9,2.2c0,0.4-0.1,0.9-0.3,1.3c-0.2,0.5-0.5,0.9-0.9,1.3c-0.6,0.6-1.2,1.2-1.9,1.8c-0.7,0.6-1.2,1-1.4,1.2c-0.1,0.1-0.1,0.2-0.2,0.2l4.4,0c0.1,0,0.1,0,0.2,0.1c0,0,0.1,0.1,0.1,0.2V33C27.6,33.1,27.5,33.3,27.3,33.3z M21,32.8h6.1v-0.7l-4.7,0c0,0,0,0,0,0c-0.1,0-0.2,0-0.2-0.1c0-0.1,0-0.2,0-0.3c0.2-0.3,0.3-0.5,0.6-0.7c0.2-0.2,0.7-0.6,1.4-1.3c0.7-0.5,1.3-1.1,1.9-1.7c0.3-0.3,0.6-0.7,0.8-1.2c0.1-0.3,0.2-0.7,0.2-1.1c0-0.7-0.3-1.3-0.8-1.8c-0.6-0.5-1.3-0.8-2.1-0.7c-0.8,0-1.5,0.2-2.1,0.7c-0.5,0.5-0.8,1.1-0.9,1.7l0.7,0.1c0-0.5,0.2-1,0.6-1.4c0.4-0.4,1-0.6,1.6-0.6c0.5,0,1.1,0.2,1.5,0.6c0.4,0.4,0.6,0.9,0.6,1.4c0,0.6-0.2,1.1-0.6,1.6c-0.7,0.8-1.4,1.5-2.3,2.2c-0.6,0.4-1.1,0.9-1.6,1.5c-0.3,0.4-0.6,0.8-0.8,1.3C21,32.4,21,32.6,21,32.8z"/>
</g>
<g>
	<path d="M32.6,33v-2.4h-4.4v-1.1l4.6-6.5h1v6.5h1.3v1.1h-1.3V33H32.6z M32.6,29.5V25l-3.1,4.5L32.6,29.5z"/>
	<path d="M33.8,33.3h-1.2c-0.1,0-0.3-0.1-0.3-0.3v-2.2h-4.1c-0.1,0-0.3-0.1-0.3-0.3v-1.1c0-0.1,0-0.1,0-0.1l4.6-6.5c0-0.1,0.1-0.1,0.2-0.1h1c0.1,0,0.3,0.1,0.3,0.3v6.3h1.1c0.1,0,0.3,0.1,0.3,0.3v1.1c0,0.1-0.1,0.3-0.3,0.3h-1.1V33C34.1,33.1,34,33.3,33.8,33.3z M32.8,32.8h0.7v-2.1c0-0.1,0.1-0.3,0.3-0.3h1.1v-0.6h-1.1c-0.1,0-0.3-0.1-0.3-0.3v-6.3H33l-4.5,6.3v0.8h4.1c0.1,0,0.3,0.1,0.3,0.3V32.8z M29.5,29.8c-0.1,0-0.2-0.1-0.2-0.1c0-0.1,0-0.2,0-0.3l3.1-4.5c0.1-0.1,0.2-0.1,0.3-0.1c0.1,0,0.2,0.1,0.2,0.2v4.5c0,0.1-0.1,0.2-0.2,0.3L29.5,29.8C29.5,29.8,29.5,29.8,29.5,29.8z M32.6,29.5L32.6,29.5L32.6,29.5z M32.3,25.8l-2.4,3.4l2.4,0V25.8z"/>
</g>
</svg>
