<svg xmlns="http://www.w3.org/2000/svg" viewBox="0 0 56 56">
<path d="M27.9,49.5c-0.9,0-1.7-0.2-2.4-0.7c-3.2-2.1-9.5-5.8-11.8-7.2c-3.9-2.3-3.5-8.1-3.5-8.4l0-19.5c0-0.6,0.4-1,1-1c10.6,0,15.9-5.9,16-6c0.2-0.2,0.5-0.3,0.8-0.3c0,0,0,0,0,0c0.3,0,0.6,0.1,0.8,0.3c0.1,0.1,5.4,6,16,6c0.6,0,1,0.4,1,1v19.6c0,0.2,0.5,6-3.4,8.3h0c-2.4,1.4-8.6,5.1-11.8,7.2C29.6,49.3,28.8,49.5,27.9,49.5z M12.2,14.8v18.6c0,0.1-0.3,4.9,2.5,6.5c2.3,1.4,8.6,5.1,11.8,7.2c0.8,0.5,1.9,0.5,2.8,0c3.2-2,9.4-5.8,11.9-7.2c2.8-1.7,2.5-6.4,2.4-6.5l0-18.7c-8.7-0.3-13.9-4.2-15.7-5.9C26.1,10.6,20.9,14.5,12.2,14.8z M41.7,40.8L41.7,40.8L41.7,40.8z"/>
<path d="M26.9,34.9c-0.3,0-0.5-0.1-0.7-0.3l-7.7-7.7c-0.4-0.4-0.4-1,0-1.4s1-0.4,1.4,0l7.7,7.7c0.4,0.4,0.4,1,0,1.4C27.4,34.8,27.1,34.9,26.9,34.9z"/>
<path d="M26.9,34.9c-0.3,0-0.5-0.1-0.7-0.3c-0.4-0.4-0.4-1,0-1.4l9.8-9.9c0.4-0.4,1-0.4,1.4,0c0.4,0.4,0.4,1,0,1.4l-9.8,9.9C27.4,34.8,27.1,34.9,26.9,34.9z"/>
</svg>
