<svg xmlns="http://www.w3.org/2000/svg" viewBox="0 0 56 56">
<path d="M54.8,41.2H1.2c-0.6,0-1-0.4-1-1V15.8c0-0.6,0.4-1,1-1h53.5c0.6,0,1,0.4,1,1v24.5C55.8,40.8,55.3,41.2,54.8,41.2z M2.2,39.2h51.5V16.8H2.2V39.2z"/>
<path d="M54.8,20.5H1.2c-0.6,0-1-0.4-1-1s0.4-1,1-1h53.5c0.6,0,1,0.4,1,1S55.3,20.5,54.8,20.5z"/>
<path d="M42,28H14c-0.6,0-1-0.4-1-1s0.4-1,1-1h28c0.6,0,1,0.4,1,1S42.6,28,42,28z"/>
<path d="M42,32.5H14c-0.6,0-1-0.4-1-1s0.4-1,1-1h28c0.6,0,1,0.4,1,1S42.6,32.5,42,32.5z"/>
<path d="M36.8,28.6c-0.9,0-1.6-0.7-1.6-1.6c0-0.9,0.7-1.6,1.6-1.6s1.6,0.7,1.6,1.6C38.3,27.9,37.7,28.6,36.8,28.6z M36.8,26.6c-0.2,0-0.4,0.2-0.4,0.4s0.2,0.4,0.4,0.4s0.4-0.2,0.4-0.4S37,26.6,36.8,26.6z"/>
<path d="M32.3,33.1c-0.9,0-1.6-0.7-1.6-1.6s0.7-1.6,1.6-1.6s1.6,0.7,1.6,1.6S33.1,33.1,32.3,33.1z M32.3,31.1c-0.2,0-0.4,0.2-0.4,0.4s0.2,0.4,0.4,0.4s0.4-0.2,0.4-0.4S32.5,31.1,32.3,31.1z"/>
<path d="M25.3,24.5H14c-0.6,0-1-0.4-1-1s0.4-1,1-1h11.3c0.6,0,1,0.4,1,1S25.8,24.5,25.3,24.5z"/>
<path d="M31.7,36.9h-7.4c-0.6,0-1-0.4-1-1s0.4-1,1-1h7.4c0.6,0,1,0.4,1,1S32.2,36.9,31.7,36.9z"/>
</svg>
