<svg xmlns="http://www.w3.org/2000/svg" viewBox="0 0 56 56">
<path d="M27.5,40.7c-7.3,0-13.2-5.9-13.2-13.2s5.9-13.2,13.2-13.2c7.3,0,13.2,5.9,13.2,13.2S34.8,40.7,27.5,40.7z M27.5,16.3c-6.2,0-11.2,5-11.2,11.2c0,6.2,5,11.2,11.2,11.2c6.2,0,11.2-5,11.2-11.2C38.7,21.3,33.7,16.3,27.5,16.3z"/>
<path d="M39.7,28.5H15.3c-0.6,0-1-0.4-1-1s0.4-1,1-1h24.4c0.6,0,1,0.4,1,1S40.2,28.5,39.7,28.5z"/>
<path d="M20.9,38.7c-0.2,0-0.4-0.1-0.5-0.2c-0.5-0.3-0.6-0.9-0.3-1.4l13.3-20.4c0.3-0.5,0.9-0.6,1.4-0.3c0.5,0.3,0.6,0.9,0.3,1.4L21.7,38.2C21.5,38.5,21.2,38.7,20.9,38.7z"/>
<path d="M34.4,38.5c-0.3,0-0.6-0.2-0.8-0.4L19.8,18c-0.3-0.5-0.2-1.1,0.3-1.4c0.5-0.3,1.1-0.2,1.4,0.3l13.8,20.1c0.3,0.5,0.2,1.1-0.3,1.4C34.8,38.5,34.6,38.5,34.4,38.5z"/>
<path d="M43,48.9H12c-3.3,0-5.9-2.7-5.9-5.9V12c0-3.3,2.7-5.9,5.9-5.9h31c3.3,0,5.9,2.7,5.9,5.9v31C48.9,46.2,46.3,48.9,43,48.9z M12,8.1c-2.2,0-3.9,1.8-3.9,3.9v31c0,2.2,1.8,3.9,3.9,3.9h31c2.2,0,3.9-1.8,3.9-3.9V12c0-2.2-1.8-3.9-3.9-3.9H12z"/>
</svg>
