<svg xmlns="http://www.w3.org/2000/svg" viewBox="0 0 56 56">
<path d="M54.5,42H5.7c-0.6,0-1-0.4-1-1V17c0-0.6,0.4-1,1-1h44.6c2.9,0,5.2,2.4,5.2,5.2V41C55.5,41.6,55.1,42,54.5,42z M6.7,40h46.8V21.2c0-1.8-1.5-3.2-3.2-3.2H6.7V40z"/>
<path d="M5.7,46.3c-0.6,0-1-0.4-1-1V14.3c0-0.4-0.2-2.6-3.2-2.6c-0.6,0-1-0.4-1-1s0.4-1,1-1c4.1,0,5.2,3,5.2,4.6v31.1C6.7,45.9,6.2,46.3,5.7,46.3z"/>
<path d="M38.1,46.3h-26c-0.6,0-1-0.4-1-1s0.4-1,1-1h26c0.6,0,1,0.4,1,1S38.6,46.3,38.1,46.3z"/>
<path d="M25.8,36c-3.8,0-7-3.1-7-7c0-3.8,3.1-7,7-7s7,3.1,7,7C32.8,32.9,29.6,36,25.8,36z M25.8,24c-2.7,0-5,2.2-5,5s2.2,5,5,5s5-2.2,5-5S28.5,24,25.8,24z"/>
<path d="M31.8,30h-12c-0.6,0-1-0.4-1-1s0.4-1,1-1h12c0.6,0,1,0.4,1,1S32.3,30,31.8,30z"/>
<path d="M22.5,35c-0.2,0-0.4-0.1-0.5-0.2c-0.5-0.3-0.6-0.9-0.3-1.4l6.5-10c0.3-0.5,0.9-0.6,1.4-0.3s0.6,0.9,0.3,1.4l-6.5,10C23.2,34.9,22.9,35,22.5,35z"/>
<path d="M29.2,35c-0.3,0-0.6-0.2-0.8-0.4l-6.8-9.9c-0.3-0.5-0.2-1.1,0.3-1.4c0.5-0.3,1.1-0.2,1.4,0.3l6.8,9.9c0.3,0.5,0.2,1.1-0.3,1.4C29.6,34.9,29.4,35,29.2,35z"/>
<path d="M41.9,36c-3.8,0-7-3.1-7-7c0-3.8,3.1-7,7-7s7,3.1,7,7C48.8,32.9,45.7,36,41.9,36z M41.9,24c-2.7,0-5,2.2-5,5s2.2,5,5,5s5-2.2,5-5S44.6,24,41.9,24z"/>
<path d="M47.8,30h-12c-0.6,0-1-0.4-1-1s0.4-1,1-1h12c0.6,0,1,0.4,1,1S48.4,30,47.8,30z"/>
<path d="M38.6,35c-0.2,0-0.4-0.1-0.5-0.2c-0.5-0.3-0.6-0.9-0.3-1.4l6.5-10c0.3-0.5,0.9-0.6,1.4-0.3c0.5,0.3,0.6,0.9,0.3,1.4l-6.5,10C39.2,34.9,38.9,35,38.6,35z"/>
<path d="M45.2,35c-0.3,0-0.6-0.2-0.8-0.4l-6.8-9.8c-0.3-0.5-0.2-1.1,0.3-1.4c0.5-0.3,1.1-0.2,1.4,0.3l6.8,9.9c0.3,0.5,0.2,1.1-0.3,1.4C45.6,34.9,45.4,35,45.2,35z"/>
<path d="M12.6,36c-0.6,0-1-0.4-1-1V23c0-0.6,0.4-1,1-1s1,0.4,1,1v12C13.6,35.6,13.2,36,12.6,36z"/>
</svg>
