<svg xmlns="http://www.w3.org/2000/svg" viewBox="0 0 56 56">
<path d="M53,48.3H3c-0.6,0-1-0.4-1-1V8.7c0-0.6,0.4-1,1-1h50c0.6,0,1,0.4,1,1v38.7C54,47.9,53.5,48.3,53,48.3z M4,46.3h48V9.7H4V46.3z"/>
<path d="M29.7,41.1c-7.2,0-13.1-5.9-13.1-13.1s5.9-13.1,13.1-13.1S42.8,20.8,42.8,28S36.9,41.1,29.7,41.1z M29.7,16.9c-6.1,0-11.1,5-11.1,11.1c0,6.1,5,11.1,11.1,11.1c6.1,0,11.1-5,11.1-11.1C40.8,21.9,35.8,16.9,29.7,16.9z"/>
<path d="M29.7,31.8c-2.1,0-3.8-1.7-3.8-3.8c0-2.1,1.7-3.8,3.8-3.8c2.1,0,3.8,1.7,3.8,3.8C33.5,30.1,31.8,31.8,29.7,31.8z M29.7,26.2c-1,0-1.8,0.8-1.8,1.8s0.8,1.8,1.8,1.8s1.8-0.8,1.8-1.8S30.7,26.2,29.7,26.2z"/>
<path d="M33.7,24.2c-0.4,0-0.8-0.2-0.9-0.6c-0.2-0.5,0-1.1,0.5-1.3l12.8-5.3c0.5-0.2,1.1,0,1.3,0.5c0.2,0.5,0,1.1-0.5,1.3l-12.8,5.3C33.9,24.1,33.8,24.2,33.7,24.2z"/>
<path d="M10.5,37.7c-0.6,0-1-0.4-1-1V19.3c0-0.6,0.4-1,1-1s1,0.4,1,1v17.3C11.5,37.2,11.1,37.7,10.5,37.7z"/>
</svg>
