<svg xmlns="http://www.w3.org/2000/svg" viewBox="0 0 56 56">
<path d="M9.3,47.4c-0.1,0-0.1,0-0.2,0c-0.3-0.1-0.5-0.2-0.6-0.4l-6.6-9.9c-0.3-0.5-0.2-1.1,0.3-1.4L44.9,7.4c0.2-0.1,0.5-0.2,0.8-0.1s0.5,0.2,0.6,0.4l6.6,9.9c0.3,0.5,0.2,1.1-0.3,1.4L9.8,47.3C9.6,47.4,9.5,47.4,9.3,47.4z M4.1,36.8L9.5,45l41.1-27.2l-5.5-8.2L4.1,36.8z"/>
<path d="M13.5,34.9c-0.3,0-0.6-0.2-0.8-0.5l-2-3c-0.3-0.5-0.2-1.1,0.3-1.4c0.5-0.3,1.1-0.2,1.4,0.3l2,3c0.3,0.5,0.2,1.1-0.3,1.4C13.9,34.8,13.7,34.9,13.5,34.9z"/>
<path d="M9.2,37.7c-0.3,0-0.6-0.2-0.8-0.4l-2-3c-0.3-0.5-0.2-1.1,0.3-1.4c0.5-0.3,1.1-0.2,1.4,0.3l2,3c0.3,0.5,0.2,1.1-0.3,1.4C9.6,37.6,9.4,37.7,9.2,37.7z"/>
<path d="M19,34c-0.3,0-0.6-0.2-0.8-0.5l-3.3-5c-0.3-0.5-0.2-1.1,0.3-1.4c0.5-0.3,1.1-0.2,1.4,0.3l3.3,5c0.3,0.5,0.2,1.1-0.3,1.4C19.4,34,19.2,34,19,34z"/>
<path d="M36,22.8c-0.3,0-0.6-0.2-0.8-0.4l-3.3-5c-0.3-0.5-0.2-1.1,0.3-1.4c0.5-0.3,1.1-0.2,1.4,0.3l3.3,5c0.3,0.5,0.2,1.1-0.3,1.4C36.4,22.8,36.2,22.8,36,22.8z"/>
<path d="M22,29.3c-0.3,0-0.6-0.2-0.8-0.4l-2-3c-0.3-0.5-0.2-1.1,0.3-1.4c0.5-0.3,1.1-0.2,1.4,0.3l2,3c0.3,0.5,0.2,1.1-0.3,1.4C22.3,29.2,22.1,29.3,22,29.3z"/>
<path d="M38.9,18.1c-0.3,0-0.6-0.2-0.8-0.5l-2-3c-0.3-0.5-0.2-1.1,0.3-1.4c0.5-0.3,1.1-0.2,1.4,0.3l2,3c0.3,0.5,0.2,1.1-0.3,1.4C39.3,18,39.1,18.1,38.9,18.1z"/>
<path d="M43.2,15.3c-0.3,0-0.6-0.2-0.8-0.4l-2-3c-0.3-0.5-0.2-1.1,0.3-1.4c0.5-0.3,1.1-0.2,1.4,0.3l2,3c0.3,0.5,0.2,1.1-0.3,1.4C43.6,15.2,43.4,15.3,43.2,15.3z"/>
<path d="M30.4,23.7c-0.3,0-0.6-0.2-0.8-0.4l-2-3c-0.3-0.5-0.2-1.1,0.3-1.4c0.5-0.3,1.1-0.2,1.4,0.3l2,3c0.3,0.5,0.2,1.1-0.3,1.4C30.8,23.6,30.6,23.7,30.4,23.7z"/>
<path d="M26.2,26.5c-0.3,0-0.6-0.2-0.8-0.4l-2-3c-0.3-0.5-0.2-1.1,0.3-1.4c0.5-0.3,1.1-0.2,1.4,0.3l2,3c0.3,0.5,0.2,1.1-0.3,1.4C26.6,26.4,26.4,26.5,26.2,26.5z"/>
</svg>
