<svg xmlns="http://www.w3.org/2000/svg" viewBox="0 0 56 56">
<path d="M42.1,43.1H13.9c-0.6,0-1-0.4-1-1V13.9c0-0.6,0.4-1,1-1h28.2c0.6,0,1,0.4,1,1v28.2C43.1,42.7,42.6,43.1,42.1,43.1z M14.9,41.1h26.2V14.9H14.9V41.1z"/>
<path d="M34.8,35.8H21.2c-0.6,0-1-0.4-1-1V21.2c0-0.6,0.4-1,1-1h13.6c0.6,0,1,0.4,1,1v13.6C35.8,35.3,35.3,35.8,34.8,35.8z M22.2,33.8h11.6V22.2H22.2V33.8z"/>
<path d="M18.8,14.9c-0.6,0-1-0.4-1-1V6.7c0-0.6,0.4-1,1-1s1,0.4,1,1v7.2C19.8,14.5,19.3,14.9,18.8,14.9z"/>
<path d="M23.4,14.9c-0.6,0-1-0.4-1-1V6.7c0-0.6,0.4-1,1-1s1,0.4,1,1v7.2C24.4,14.5,23.9,14.9,23.4,14.9z"/>
<path d="M28,14.9c-0.6,0-1-0.4-1-1V6.7c0-0.6,0.4-1,1-1c0.6,0,1,0.4,1,1v7.2C29,14.5,28.5,14.9,28,14.9z"/>
<path d="M32.6,14.9c-0.6,0-1-0.4-1-1V6.7c0-0.6,0.4-1,1-1s1,0.4,1,1v7.2C33.6,14.5,33.1,14.9,32.6,14.9z"/>
<path d="M37.2,14.9c-0.6,0-1-0.4-1-1V6.7c0-0.6,0.4-1,1-1s1,0.4,1,1v7.2C38.2,14.5,37.7,14.9,37.2,14.9z"/>
<path d="M18.8,50.3c-0.6,0-1-0.4-1-1v-7.2c0-0.6,0.4-1,1-1s1,0.4,1,1v7.2C19.8,49.8,19.3,50.3,18.8,50.3z"/>
<path d="M23.4,50.3c-0.6,0-1-0.4-1-1v-7.2c0-0.6,0.4-1,1-1s1,0.4,1,1v7.2C24.4,49.8,23.9,50.3,23.4,50.3z"/>
<path d="M28,50.3c-0.6,0-1-0.4-1-1v-7.2c0-0.6,0.4-1,1-1c0.6,0,1,0.4,1,1v7.2C29,49.8,28.5,50.3,28,50.3z"/>
<path d="M32.6,50.3c-0.6,0-1-0.4-1-1v-7.2c0-0.6,0.4-1,1-1s1,0.4,1,1v7.2C33.6,49.8,33.1,50.3,32.6,50.3z"/>
<path d="M37.2,50.3c-0.6,0-1-0.4-1-1v-7.2c0-0.6,0.4-1,1-1s1,0.4,1,1v7.2C38.2,49.8,37.7,50.3,37.2,50.3z"/>
<path d="M49.2,38.2h-7.2c-0.6,0-1-0.4-1-1s0.4-1,1-1h7.2c0.6,0,1,0.4,1,1S49.8,38.2,49.2,38.2z"/>
<path d="M49.2,33.6h-7.2c-0.6,0-1-0.4-1-1s0.4-1,1-1h7.2c0.6,0,1,0.4,1,1S49.8,33.6,49.2,33.6z"/>
<path d="M49.2,29h-7.2c-0.6,0-1-0.4-1-1c0-0.6,0.4-1,1-1h7.2c0.6,0,1,0.4,1,1C50.2,28.6,49.8,29,49.2,29z"/>
<path d="M49.2,24.4h-7.2c-0.6,0-1-0.4-1-1s0.4-1,1-1h7.2c0.6,0,1,0.4,1,1S49.8,24.4,49.2,24.4z"/>
<path d="M49.2,19.8h-7.2c-0.6,0-1-0.4-1-1s0.4-1,1-1h7.2c0.6,0,1,0.4,1,1S49.8,19.8,49.2,19.8z"/>
<path d="M13.9,38.2H6.7c-0.6,0-1-0.4-1-1s0.4-1,1-1h7.2c0.6,0,1,0.4,1,1S14.4,38.2,13.9,38.2z"/>
<path d="M13.9,33.6H6.7c-0.6,0-1-0.4-1-1s0.4-1,1-1h7.2c0.6,0,1,0.4,1,1S14.4,33.6,13.9,33.6z"/>
<path d="M13.9,29H6.7c-0.6,0-1-0.4-1-1c0-0.6,0.4-1,1-1h7.2c0.6,0,1,0.4,1,1C14.9,28.6,14.4,29,13.9,29z"/>
<path d="M13.9,24.4H6.7c-0.6,0-1-0.4-1-1s0.4-1,1-1h7.2c0.6,0,1,0.4,1,1S14.4,24.4,13.9,24.4z"/>
<path d="M13.9,19.8H6.7c-0.6,0-1-0.4-1-1s0.4-1,1-1h7.2c0.6,0,1,0.4,1,1S14.4,19.8,13.9,19.8z"/>
</svg>
