<svg xmlns="http://www.w3.org/2000/svg" viewBox="0 0 56 56">
<path d="M28,46.2c-10,0-26.9-1.3-26.9-6c0-1.8,2.3-2.7,3-3c0.3-0.1,0.5-0.1,0.8,0C9,38.8,18.1,40,28,40c10,0,19-1.1,23.1-2.8c0.3-0.1,0.5-0.1,0.8,0c2,0.8,3,1.8,3,3C55,44.9,37.3,46.2,28,46.2z M4.5,39.2c-1.2,0.6-1.3,0.9-1.3,1c0.3,1.4,9.1,3.9,24.9,3.9c15.6,0,24.4-2.6,24.8-3.9c0-0.1-0.3-0.4-1.3-0.9C47,41,37.9,42,28,42C18.2,42,9,40.9,4.5,39.2z M52.9,40.2L52.9,40.2L52.9,40.2z"/>
<path d="M28,42c-10.1,0-19.5-1.2-23.9-3c-2-0.9-3-1.9-3-3c0-1.2,1-2.2,3-3.1c0.2-0.1,0.5-0.1,0.8,0c2.9,1.1,6,1.7,9.1,2.1c4.7,0.5,9.4,0.8,14.1,0.8c4.7,0,9.4-0.2,14.1-0.8c3.1-0.3,6.2-1,9.1-2c0.2-0.1,0.5-0.1,0.7,0c0.7,0.3,3,1.2,3,3.1c0,1.8-2.3,2.7-3,3.1C47.5,40.9,38.1,42,28,42z M3.1,36c0,0,0.3,0.4,1.7,1.1C9,38.8,18.1,40,28,40c9.9,0,18.9-1.1,23.1-2.8c1.5-0.6,1.7-1.1,1.7-1.1c0-0.1-0.2-0.4-1.4-1c-3,1-6.1,1.7-9.2,2c-4.7,0.6-9.6,0.8-14.3,0.8c-4.8,0-9.6-0.2-14.3-0.8c-3.1-0.3-6.2-1-9.1-2C3.5,35.5,3.2,35.9,3.1,36C3.1,36,3.1,36,3.1,36z M52.9,36L52.9,36L52.9,36z"/>
<path d="M28.7,37.8c-0.2,0-0.5,0-0.7,0c-4.8,0-9.6-0.2-14.3-0.8c-3.2-0.3-6.4-1-9.5-2.1c-1.4-0.6-3.1-1.6-3.1-3.1c0-4.8,17.6-6,26.9-6c10,0,27,1.3,27,6c0,1.8-2.3,2.7-3,3.1c-3.1,1.1-6.4,1.9-9.6,2.2C37.8,37.6,33.2,37.8,28.7,37.8z M28,35.7c4.7,0,9.4-0.2,14.1-0.8c3.1-0.3,6.2-1,9.1-2.1c1.4-0.6,1.6-1,1.7-1.1c-0.3-1.4-9-3.9-24.8-3.9c-15.7,0-24.5,2.6-24.9,4l0,0c0,0,0.2,0.4,1.8,1.2c2.8,1,5.9,1.7,9,2C18.6,35.5,23.3,35.8,28,35.7z M52.9,31.8L52.9,31.8L52.9,31.8z"/>
<g>
	<path d="M7.2,20.9v-10h4.4c0.7,0,1.4,0.1,2,0.3c0.5,0.2,0.9,0.5,1.1,1c0.3,0.5,0.4,1,0.4,1.5c0,0.7-0.2,1.3-0.7,1.8c-0.6,0.5-1.3,0.9-2.1,0.9c0.3,0.1,0.6,0.3,0.8,0.5c0.4,0.4,0.8,0.8,1.1,1.3l1.7,2.7h-1.6L13,18.8c-0.4-0.6-0.7-1.1-1-1.4c-0.2-0.3-0.4-0.5-0.7-0.7c-0.2-0.1-0.4-0.2-0.6-0.3c-0.2,0-0.5,0-0.7,0H8.5v4.5L7.2,20.9z M8.5,15.3h2.8c0.5,0,1,0,1.4-0.2c0.3-0.1,0.6-0.3,0.8-0.6c0.2-0.3,0.3-0.6,0.3-0.9c0-0.4-0.2-0.9-0.5-1.2c-0.5-0.3-1.1-0.5-1.6-0.4H8.5V15.3z"/>
	<path d="M8.5,21.2C8.5,21.2,8.5,21.2,8.5,21.2l-1.3,0C7.1,21.1,7,21,7,20.9v-10c0-0.1,0.1-0.3,0.3-0.3h4.4c0.7,0,1.4,0.1,2.1,0.3c0.5,0.2,1,0.6,1.3,1.1c0.3,0.5,0.5,1,0.5,1.6c0,0.7-0.3,1.4-0.8,2c-0.5,0.4-1,0.7-1.6,0.9c0.1,0.1,0.2,0.1,0.2,0.2c0.4,0.4,0.8,0.9,1.2,1.4l1.7,2.7c0.1,0.1,0.1,0.2,0,0.3c0,0.1-0.1,0.1-0.2,0.1h-1.6c-0.1,0-0.2,0-0.2-0.1l-1.4-2.1c-0.4-0.6-0.7-1-1-1.4c-0.2-0.3-0.4-0.5-0.6-0.6c-0.2-0.1-0.3-0.2-0.5-0.2c-0.2,0-0.4,0-0.7,0l-1.2,0v4.2c0,0.1,0,0.1-0.1,0.2C8.7,21.2,8.6,21.2,8.5,21.2z M7.5,20.6l0.8,0v-4.2c0-0.1,0.1-0.3,0.3-0.3H10c0.2,0,0.5,0,0.8,0c0.3,0.1,0.5,0.2,0.7,0.3c0.3,0.2,0.5,0.5,0.7,0.7c0.3,0.3,0.6,0.8,1,1.4l1.3,2h1l-1.5-2.3c-0.3-0.5-0.7-0.9-1.1-1.3c-0.2-0.2-0.5-0.3-0.7-0.5c-0.1,0-0.2-0.2-0.1-0.3s0.1-0.2,0.2-0.2c0.7-0.1,1.4-0.4,2-0.9c0.4-0.4,0.6-1,0.6-1.6c0-0.5-0.1-1-0.4-1.4c-0.2-0.4-0.6-0.7-1-0.9c-0.6-0.2-1.2-0.3-1.9-0.3H7.5V20.6z M11.5,15.5c-0.1,0-0.1,0-0.2,0H8.5c-0.1,0-0.3-0.1-0.3-0.3V12c0-0.1,0.1-0.3,0.3-0.3h3.2c0.6-0.1,1.3,0.1,1.8,0.5c0.4,0.4,0.6,0.9,0.6,1.4c0,0.4-0.1,0.7-0.3,1c-0.2,0.3-0.5,0.6-0.9,0.7C12.4,15.5,12,15.5,11.5,15.5z M8.8,15h2.6c0.5,0,0.9,0,1.3-0.2c0.3-0.1,0.5-0.3,0.6-0.5c0.1-0.2,0.2-0.5,0.2-0.8c0-0.4-0.1-0.7-0.4-1c-0.4-0.3-0.9-0.4-1.4-0.4l-2.9,0V15z"/>
</g>
<g>
	<path d="M17.3,20.9l3.9-10h1.4l4.1,10h-1.5l-1.2-3h-4.2l-1.1,3H17.3z M20.2,16.8h3.4l-1-2.8c-0.3-0.8-0.6-1.5-0.7-2.1c-0.1,0.6-0.3,1.3-0.5,1.9L20.2,16.8z"/>
	<path d="M26.7,21.1h-1.5c-0.1,0-0.2-0.1-0.2-0.2l-1.1-2.8H20L19,21c0,0.1-0.1,0.2-0.2,0.2h-1.4c-0.1,0-0.2,0-0.2-0.1c0-0.1-0.1-0.2,0-0.2l3.9-10c0-0.1,0.1-0.2,0.2-0.2h1.4c0.1,0,0.2,0.1,0.2,0.2l4.1,10c0,0.1,0,0.2,0,0.2S26.8,21.1,26.7,21.1z M25.4,20.6h1l-3.9-9.5h-1.1l-3.7,9.5h0.9l1-2.8c0-0.1,0.1-0.2,0.2-0.2H24c0.1,0,0.2,0.1,0.2,0.2L25.4,20.6z M23.6,17h-3.4c-0.1,0-0.2,0-0.2-0.1c0-0.1-0.1-0.2,0-0.2l1.1-3c0.2-0.6,0.4-1.2,0.5-1.9c0-0.1,0.1-0.2,0.2-0.2c0.1,0,0.2,0.1,0.3,0.2c0.2,0.5,0.4,1.2,0.7,2.1l1,2.8c0,0.1,0,0.2,0,0.2C23.8,17,23.7,17,23.6,17z M20.6,16.5h2.7l-0.9-2.4c-0.2-0.4-0.3-0.9-0.4-1.2c-0.1,0.4-0.2,0.7-0.3,1.1L20.6,16.5z"/>
</g>
<g>
	<path d="M28,20.9v-10h1.3v10H28z"/>
	<path d="M29.3,21.1H28c-0.1,0-0.3-0.1-0.3-0.3v-10c0-0.1,0.1-0.3,0.3-0.3h1.3c0.1,0,0.3,0.1,0.3,0.3v10C29.6,21,29.5,21.1,29.3,21.1z M28.3,20.6h0.8v-9.5h-0.8V20.6z"/>
</g>
<g>
	<path d="M31.1,20v-8.2c0-0.6,0.4-1,1-1h2.5c0.6,0,1.2,0,1.8,0.1c0.5,0.1,1,0.4,1.5,0.7c0.5,0.5,0.9,1.1,1.2,1.7c0.3,0.8,0.4,1.6,0.4,2.4c0,0.7-0.1,1.3-0.3,2c-0.1,0.5-0.4,1-0.7,1.5c-0.2,0.4-0.6,0.7-0.9,0.9c-0.4,0.2-0.8,0.4-1.2,0.5c-0.5,0.1-1.1,0.2-1.6,0.2H32C31.5,20.9,31.1,20.5,31.1,20C31.1,20,31.1,20,31.1,20z M32.4,19.7h2.1c0.5,0,1.1,0,1.6-0.2c0.3-0.1,0.6-0.3,0.9-0.5c0.3-0.4,0.6-0.8,0.7-1.3c0.2-0.6,0.3-1.3,0.3-1.9c0-0.8-0.1-1.7-0.5-2.4c-0.3-0.5-0.7-0.9-1.3-1.1c-0.5-0.2-1.1-0.3-1.7-0.3h-2.1L32.4,19.7z"/>
	<path d="M34.8,21.1c0,0-0.1,0-0.1,0H32c-0.3,0-0.6-0.1-0.8-0.3c-0.2-0.2-0.3-0.5-0.4-0.8c0,0,0,0,0,0v-8.2c0-0.7,0.6-1.3,1.3-1.3h2.5c0.6,0,1.2,0,1.8,0.1c0.6,0.1,1.1,0.4,1.6,0.8c0.6,0.5,1,1.1,1.2,1.8c0.3,0.8,0.4,1.6,0.4,2.5c0,0.7-0.1,1.4-0.3,2.1c-0.2,0.5-0.4,1.1-0.7,1.5c-0.3,0.4-0.6,0.7-1,1c-0.4,0.3-0.8,0.4-1.3,0.5C35.9,21.1,35.3,21.1,34.8,21.1z M34.7,20.6c0.5,0,1,0,1.6-0.2c0.4-0.1,0.8-0.2,1.1-0.5c0.3-0.2,0.6-0.5,0.8-0.8c0.3-0.4,0.5-0.9,0.6-1.4c0.2-0.6,0.3-1.3,0.3-1.9c0-0.8-0.1-1.6-0.4-2.3c-0.2-0.6-0.6-1.2-1.1-1.6c-0.4-0.3-0.9-0.6-1.4-0.7c-0.6-0.1-1.1-0.2-1.7-0.1h-2.5c-0.4,0-0.8,0.3-0.8,0.8V20c0,0.2,0.1,0.3,0.2,0.4c0.1,0.1,0.3,0.2,0.4,0.2H34.7z M34.8,19.9c-0.1,0-0.1,0-0.2,0h-2.1c-0.1,0-0.3-0.1-0.3-0.2l0-7.7c0-0.1,0-0.1,0.1-0.2s0.1-0.1,0.2-0.1h2.1c0.6,0,1.2,0.1,1.8,0.3c0.6,0.3,1.1,0.7,1.4,1.2c0.4,0.8,0.6,1.7,0.6,2.6c0,0.7-0.1,1.3-0.3,2c-0.2,0.5-0.4,1-0.8,1.4c-0.3,0.3-0.6,0.5-1,0.6C35.7,19.9,35.2,19.9,34.8,19.9z M32.7,19.4h1.9c0.5,0,1,0,1.5-0.2c0.3-0.1,0.5-0.2,0.8-0.4c0.3-0.3,0.5-0.7,0.7-1.2c0.2-0.6,0.3-1.2,0.3-1.9c0-0.8-0.1-1.6-0.5-2.3c-0.2-0.4-0.7-0.8-1.1-1c-0.5-0.2-1-0.2-1.6-0.2h-1.9L32.7,19.4z"/>
</g>
<g>
	<path d="M42.1,18.1l1.3-0.1c0.1,0.5,0.3,1,0.7,1.4c0.3,0.3,0.8,0.5,1.3,0.5c0.6,0,1.1-0.2,1.5-0.7c0.4-0.5,0.7-1.1,0.6-1.8c0-0.6-0.2-1.2-0.6-1.7c-0.4-0.4-1-0.6-1.5-0.6c-0.4,0-0.7,0.1-1.1,0.3c-0.3,0.2-0.6,0.4-0.8,0.7L42.4,16l1-5.1h5V12h-4l-0.5,2.7c0.5-0.4,1.2-0.6,1.9-0.6c0.8,0,1.6,0.3,2.2,0.9c0.6,0.6,0.9,1.5,0.9,2.3c0,0.9-0.3,1.7-0.8,2.4c-0.6,0.8-1.6,1.3-2.6,1.2c-0.8,0-1.6-0.2-2.2-0.8C42.6,19.6,42.2,18.9,42.1,18.1z"/>
	<path d="M45.2,21.2c-0.8,0-1.6-0.3-2.2-0.8c-0.6-0.6-1-1.3-1.1-2.2c0-0.1,0.1-0.3,0.2-0.3l1.3-0.1c0.1,0,0.1,0,0.2,0.1s0.1,0.1,0.1,0.2c0,0.5,0.3,0.9,0.6,1.3c0.3,0.3,0.7,0.4,1,0.4c0,0,0,0,0,0c0.5,0,1-0.2,1.3-0.6c0.4-0.4,0.6-1,0.6-1.6c0-0.6-0.2-1.1-0.5-1.5c-0.4-0.4-0.9-0.6-1.4-0.5c-0.4,0-0.7,0.1-1,0.2c-0.3,0.1-0.5,0.4-0.7,0.6c-0.1,0.1-0.1,0.1-0.2,0.1l-1.2-0.1c-0.1,0-0.1,0-0.2-0.1c0-0.1-0.1-0.1,0-0.2l1-5.1c0-0.1,0.1-0.2,0.2-0.2h5c0.1,0,0.3,0.1,0.3,0.3V12c0,0.1-0.1,0.3-0.3,0.3h-3.8l-0.4,1.9c0.5-0.2,1-0.4,1.5-0.4c0.9,0,1.8,0.3,2.4,1c0.7,0.7,1,1.6,1,2.5c0,0.9-0.3,1.8-0.9,2.5c-0.7,0.9-1.7,1.3-2.8,1.3C45.3,21.2,45.3,21.2,45.2,21.2z M42.4,18.4c0.1,0.6,0.4,1.2,0.9,1.6c0.6,0.5,1.3,0.7,2.1,0.7c0.9,0,1.9-0.4,2.4-1.1c0.5-0.6,0.8-1.4,0.8-2.2c0-0.8-0.3-1.6-0.8-2.2c-0.5-0.5-1.3-0.9-2-0.8c-0.6,0-1.2,0.2-1.7,0.6c-0.1,0.1-0.2,0.1-0.3,0s-0.1-0.2-0.1-0.3l0.5-2.7c0-0.1,0.1-0.2,0.2-0.2h3.8v-0.6h-4.5l-0.9,4.7l0.8,0.1c0.2-0.3,0.5-0.5,0.7-0.7c0.4-0.2,0.7-0.3,1.2-0.3c0.6,0,1.3,0.2,1.7,0.7c0.5,0.5,0.7,1.2,0.7,1.8c0,0.7-0.2,1.4-0.7,1.9c-0.4,0.5-1,0.7-1.7,0.8c0,0,0,0,0,0c-0.5,0-1-0.2-1.4-0.5c-0.4-0.4-0.6-0.8-0.7-1.3L42.4,18.4z"/>
</g>
</svg>
