<svg xmlns="http://www.w3.org/2000/svg" viewBox="0 0 56 56">
<path d="M28,49.4C16.2,49.4,6.6,39.8,6.6,28S16.2,6.6,28,6.6S49.4,16.2,49.4,28S39.8,49.4,28,49.4z M28,8.6C17.3,8.6,8.6,17.3,8.6,28c0,10.7,8.7,19.4,19.4,19.4c10.7,0,19.4-8.7,19.4-19.4C47.4,17.3,38.7,8.6,28,8.6z"/>
<path d="M44.1,35.1c-0.1,0-0.2,0-0.4-0.1c-0.5-0.2-0.8-0.8-0.6-1.3c1.4-3.7,1.4-7.8,0-11.5C40,13.9,30.6,9.7,22.3,12.8C13.9,16,9.7,25.4,12.8,33.8c0.2,0.5-0.1,1.1-0.6,1.3c-0.5,0.2-1.1-0.1-1.3-0.6C7.4,25.1,12.2,14.5,21.6,11C31,7.4,41.5,12.2,45,21.6c1.6,4.2,1.6,8.7,0,12.9C44.9,34.9,44.5,35.1,44.1,35.1z"/>
<path d="M28,15.7c-0.6,0-1-0.4-1-1v-4c0-0.6,0.4-1,1-1c0.6,0,1,0.4,1,1v4C29,15.3,28.6,15.7,28,15.7z"/>
<g>
	<path d="M20,32.9v-1h3.7v3.2c-0.5,0.4-1.1,0.8-1.8,1c-0.6,0.2-1.2,0.3-1.9,0.3c-0.8,0-1.6-0.2-2.3-0.5c-0.7-0.3-1.2-0.9-1.6-1.6c-0.4-0.7-0.6-1.5-0.6-2.3c0-0.8,0.2-1.6,0.5-2.4c0.3-0.7,0.9-1.3,1.5-1.6c0.7-0.4,1.5-0.6,2.3-0.6c0.6,0,1.2,0.1,1.7,0.3c0.5,0.2,0.9,0.5,1.2,0.9c0.3,0.4,0.5,0.9,0.6,1.4l-1,0.3c-0.1-0.4-0.3-0.7-0.5-1c-0.2-0.3-0.5-0.5-0.8-0.6c-0.4-0.2-0.8-0.2-1.2-0.2c-0.5,0-0.9,0.1-1.4,0.2c-0.4,0.1-0.7,0.4-0.9,0.6c-0.2,0.3-0.4,0.5-0.5,0.9c-0.2,0.6-0.3,1.2-0.3,1.8c0,0.7,0.1,1.4,0.4,2c0.3,0.5,0.6,0.8,1.1,1c0.5,0.3,1.1,0.4,1.6,0.4c0.5,0,1-0.1,1.5-0.3c0.4-0.1,0.8-0.4,1.1-0.6v-1.6H20z"/>
	<path d="M20,36.7c-0.8,0-1.6-0.2-2.4-0.6c-0.7-0.4-1.3-1-1.7-1.7c-0.4-0.7-0.6-1.6-0.6-2.4c0-0.9,0.2-1.7,0.6-2.5c0.3-0.7,0.9-1.4,1.6-1.7c0.8-0.4,1.6-0.6,2.5-0.6c0.6,0,1.2,0.1,1.8,0.3c0.5,0.2,0.9,0.5,1.3,0.9c0.3,0.5,0.6,1,0.7,1.5c0,0.1,0,0.2-0.2,0.3l-1,0.3c-0.1,0-0.1,0-0.2,0c-0.1,0-0.1-0.1-0.1-0.1c-0.1-0.3-0.3-0.6-0.5-0.9c-0.2-0.2-0.4-0.4-0.7-0.5c-0.4-0.1-0.7-0.2-1.1-0.2c-0.4,0-0.9,0.1-1.3,0.2c-0.3,0.1-0.6,0.3-0.8,0.6c-0.2,0.2-0.4,0.5-0.5,0.8c-0.2,0.5-0.3,1.1-0.3,1.7c0,0.7,0.1,1.3,0.4,1.9c0.2,0.4,0.6,0.7,1,0.9c0.5,0.2,1,0.4,1.5,0.4c0,0,0,0,0,0c0.5,0,0.9-0.1,1.4-0.3c0.3-0.1,0.7-0.3,0.9-0.5v-1.3H20c-0.1,0-0.2-0.1-0.2-0.2v-1c0-0.1,0.1-0.2,0.2-0.2h3.7c0.1,0,0.2,0.1,0.2,0.2v3.2c0,0.1,0,0.1-0.1,0.2c-0.6,0.4-1.2,0.8-1.8,1C21.4,36.5,20.8,36.7,20,36.7C20.1,36.7,20,36.7,20,36.7z M19.9,27.6c-0.8,0-1.5,0.2-2.2,0.6c-0.6,0.3-1.1,0.9-1.4,1.5c-0.3,0.7-0.5,1.5-0.5,2.3c0,0.8,0.2,1.5,0.5,2.2c0.3,0.6,0.8,1.2,1.5,1.5c0.7,0.4,1.5,0.5,2.2,0.5c0,0,0,0,0,0c0.6,0,1.2-0.1,1.8-0.3c0.6-0.2,1.1-0.5,1.6-0.9v-2.9h-3.3v0.6h2.3c0.1,0,0.2,0.1,0.2,0.2v1.6c0,0.1,0,0.1-0.1,0.2c-0.3,0.3-0.7,0.5-1.1,0.7c-0.5,0.2-1,0.3-1.5,0.3c0,0,0,0,0,0c-0.6,0-1.2-0.1-1.7-0.4c-0.5-0.2-0.9-0.6-1.2-1.1c-0.3-0.7-0.5-1.4-0.4-2.1c0-0.6,0.1-1.2,0.3-1.8c0.1-0.3,0.3-0.7,0.6-0.9c0.3-0.3,0.6-0.5,1-0.7c0.5-0.2,1-0.3,1.5-0.3c0.4,0,0.9,0.1,1.3,0.2c0.4,0.1,0.7,0.4,0.9,0.7c0.2,0.3,0.4,0.6,0.5,0.9l0.6-0.2c-0.1-0.4-0.3-0.8-0.5-1.2c-0.3-0.3-0.7-0.6-1.1-0.8C21.1,27.7,20.6,27.6,19.9,27.6C20,27.6,20,27.6,19.9,27.6z"/>
</g>
<g>
	<path d="M25.4,36.3v-8.7h3.3c0.4,0,0.9,0,1.3,0.1c0.4,0.1,0.8,0.2,1.1,0.4c0.3,0.2,0.5,0.5,0.7,0.8c0.5,1,0.3,2.3-0.4,3.1c-0.7,0.6-1.6,0.9-2.6,0.8h-2.3v3.5L25.4,36.3z M26.5,31.7h2.3c0.6,0.1,1.1-0.1,1.6-0.4c0.3-0.3,0.5-0.7,0.5-1.2c0-0.3-0.1-0.7-0.3-0.9c-0.2-0.3-0.4-0.4-0.7-0.5c-0.4-0.1-0.7-0.1-1.1-0.1h-2.2L26.5,31.7z"/>
	<path d="M26.5,36.5C26.5,36.5,26.5,36.5,26.5,36.5l-1.2,0c-0.1,0-0.2-0.1-0.2-0.2v-8.7c0-0.1,0.1-0.2,0.2-0.2h3.3c0.5,0,0.9,0,1.4,0.1c0.4,0.1,0.8,0.2,1.2,0.4c0.3,0.2,0.6,0.6,0.8,0.9c0.5,1.1,0.3,2.4-0.5,3.4c-0.8,0.7-1.8,0.9-2.7,0.8l-2,0v3.3c0,0.1,0,0.1-0.1,0.2C26.6,36.5,26.6,36.5,26.5,36.5z M25.6,36.1l0.7,0v-3.3c0-0.1,0.1-0.2,0.2-0.2h2.3c0.9,0.1,1.8-0.2,2.4-0.7c0.7-0.8,0.8-1.9,0.4-2.9c-0.1-0.3-0.4-0.6-0.6-0.8c-0.3-0.2-0.6-0.3-1-0.4c-0.4-0.1-0.9-0.1-1.3-0.1l-3.1,0V36.1z M29,31.9c-0.1,0-0.2,0-0.2,0l-2.2,0c-0.1,0-0.2-0.1-0.2-0.2l0-3.1c0-0.1,0-0.1,0.1-0.2c0,0,0.1-0.1,0.2-0.1h2.2c0.4,0,0.7,0,1.1,0.1c0.4,0.1,0.7,0.3,0.9,0.6c0.2,0.3,0.3,0.7,0.3,1.1c0,0.5-0.2,1-0.5,1.3C30.1,31.8,29.6,31.9,29,31.9z M26.8,31.5h2c0.5,0,1-0.1,1.5-0.4c0.3-0.2,0.4-0.6,0.4-1c0-0.3-0.1-0.6-0.2-0.8c-0.1-0.2-0.4-0.4-0.6-0.4c-0.3-0.1-0.7-0.1-1-0.1h-2L26.8,31.5z"/>
</g>
<g>
	<path d="M39.3,27.5h1.2v5c0,0.7-0.1,1.4-0.3,2.1c-0.2,0.6-0.6,1-1.1,1.3c-0.6,0.3-1.3,0.5-2,0.5c-0.7,0-1.4-0.1-2-0.4c-0.5-0.3-0.9-0.7-1.1-1.2c-0.2-0.7-0.4-1.4-0.3-2.2v-5h1.2v5c0,0.6,0,1.1,0.2,1.7c0.1,0.4,0.4,0.6,0.7,0.8c0.4,0.2,0.8,0.3,1.3,0.3c0.7,0.1,1.3-0.1,1.8-0.6c0.4-0.7,0.6-1.4,0.5-2.2L39.3,27.5z"/>
	<path d="M37.1,36.7c0,0-0.1,0-0.1,0c-0.7,0-1.4-0.1-2.1-0.5c-0.5-0.3-1-0.8-1.2-1.3c-0.3-0.7-0.4-1.5-0.3-2.3v-5c0-0.1,0.1-0.2,0.2-0.2h1.2c0.1,0,0.2,0.1,0.2,0.2v5c0,0.6,0,1.1,0.2,1.6c0.1,0.3,0.3,0.5,0.6,0.7c0.4,0.2,0.7,0.3,1.1,0.3c0.6,0.1,1.2-0.1,1.7-0.5c0.4-0.6,0.6-1.3,0.5-2l0-5.1c0-0.1,0-0.1,0.1-0.2c0,0,0.1-0.1,0.2-0.1h1.2c0.1,0,0.2,0.1,0.2,0.2v5c0,0.7-0.1,1.5-0.3,2.2c-0.2,0.6-0.7,1.1-1.2,1.4C38.5,36.5,37.8,36.7,37.1,36.7z M37,36.2c0.7,0,1.3-0.1,1.9-0.5c0.5-0.3,0.8-0.7,1-1.2c0.2-0.6,0.3-1.3,0.3-2v-4.8h-0.7l0,4.8c0.1,0.8-0.1,1.6-0.6,2.3c0,0,0,0,0,0c-0.5,0.5-1.3,0.7-2,0.6c-0.4,0-0.9-0.1-1.3-0.3c-0.4-0.2-0.7-0.5-0.8-0.9c-0.2-0.6-0.3-1.2-0.2-1.8v-4.8h-0.7v4.8c0,0.7,0.1,1.4,0.3,2.1c0.2,0.5,0.6,0.9,1,1.1C35.7,36.1,36.4,36.2,37,36.2z M38.7,34.8L38.7,34.8L38.7,34.8z"/>
</g>
</svg>
