<svg xmlns="http://www.w3.org/2000/svg" viewBox="0 0 56 56">
<path d="M28,49.8c-1.5,0-3-0.6-4.1-1.7L22,46.2c-0.7-0.7-1.7-1.1-2.7-1.1h-2.7c-3.2,0-5.8-2.6-5.8-5.8v-2.7c0-1-0.4-2-1.1-2.7l-1.9-1.9C6.8,31,6.2,29.5,6.2,28s0.6-3,1.7-4.1L9.8,22c0.7-0.7,1.1-1.7,1.1-2.7v-2.7c0-3.2,2.6-5.8,5.8-5.8h2.7c1,0,2-0.4,2.7-1.1l1.9-1.9c2.3-2.3,5.9-2.3,8.2,0L34,9.8c0.7,0.7,1.7,1.1,2.7,1.1h2.7c3.2,0,5.8,2.6,5.8,5.8v2.7c0,1,0.4,2,1.1,2.7l1.9,1.9c2.3,2.2,2.3,5.9,0,8.2c0,0,0,0,0,0L46.2,34c-0.7,0.7-1.1,1.7-1.1,2.7v2.7c0,3.2-2.6,5.8-5.8,5.8h-2.7c-1,0-2,0.4-2.7,1.1l-1.9,1.9C31,49.2,29.5,49.8,28,49.8z M16.6,12.9c-2.1,0-3.8,1.7-3.8,3.8v2.7c0,1.5-0.6,3-1.7,4.1l-1.9,1.9C8.6,26,8.2,27,8.2,28s0.4,2,1.1,2.7l1.9,1.9c1.1,1.1,1.7,2.5,1.7,4.1v2.7c0,2.1,1.7,3.8,3.8,3.8h2.7c1.5,0,3,0.6,4.1,1.7l1.9,1.9c1.4,1.4,3.9,1.4,5.3,0l1.9-1.9c1.1-1.1,2.5-1.7,4.1-1.7h2.7c2.1,0,3.8-1.7,3.8-3.8v-2.7c0-1.5,0.6-3,1.7-4.1l1.9-1.9c0,0,0,0,0,0c1.5-1.5,1.4-3.9,0-5.3l-1.9-1.9c-1.1-1.1-1.7-2.5-1.7-4.1v-2.7c0-2.1-1.7-3.8-3.8-3.8h-2.7c-1.5,0-3-0.6-4.1-1.7l-1.9-1.9c-1.5-1.5-3.9-1.5-5.3,0l-1.9,1.9c-1.1,1.1-2.5,1.7-4.1,1.7H16.6z"/>
<path d="M28,36.7c-4.8,0-8.7-3.9-8.7-8.7c0-4.8,3.9-8.7,8.7-8.7c4.8,0,8.7,3.9,8.7,8.7C36.7,32.8,32.8,36.7,28,36.7z M28,21.3c-3.7,0-6.7,3-6.7,6.7c0,3.7,3,6.7,6.7,6.7c3.7,0,6.7-3,6.7-6.7C34.7,24.3,31.7,21.3,28,21.3z"/>
</svg>
