<svg xmlns="http://www.w3.org/2000/svg" viewBox="0 0 56 56">
<path d="M28,46.2c-10,0-26.9-1.3-26.9-6c0-1.8,2.3-2.7,3-3c0.3-0.1,0.5-0.1,0.8,0C9,38.8,18.1,40,28,40c10,0,19-1.1,23.1-2.8c0.3-0.1,0.5-0.1,0.8,0c2,0.8,3,1.8,3,3C55,44.9,37.3,46.2,28,46.2z M4.5,39.2c-1.2,0.6-1.3,0.9-1.3,1c0.3,1.4,9.1,3.9,24.9,3.9c15.6,0,24.4-2.6,24.8-3.9c0-0.1-0.3-0.4-1.3-0.9C47,41,37.9,42,28,42C18.2,42,9,40.9,4.5,39.2z M52.9,40.2L52.9,40.2L52.9,40.2z"/>
<path d="M28,42c-10.1,0-19.5-1.2-23.9-3c-2-0.9-3-1.9-3-3c0-1.2,1-2.2,3-3.1c0.2-0.1,0.5-0.1,0.8,0c2.9,1.1,6,1.7,9.1,2.1c4.7,0.5,9.4,0.8,14.1,0.8c4.7,0,9.4-0.2,14.1-0.8c3.1-0.3,6.2-1,9.1-2c0.2-0.1,0.5-0.1,0.7,0c0.7,0.3,3,1.2,3,3.1c0,1.8-2.3,2.7-3,3.1C47.5,40.9,38.1,42,28,42z M3.1,36c0,0,0.3,0.4,1.7,1.1C9,38.8,18.1,40,28,40c9.9,0,18.9-1.1,23.1-2.8c1.5-0.6,1.7-1.1,1.7-1.1c0-0.1-0.2-0.4-1.4-1c-3,1-6.1,1.7-9.2,2c-4.7,0.6-9.6,0.8-14.3,0.8c-4.8,0-9.6-0.2-14.3-0.8c-3.1-0.3-6.2-1-9.1-2C3.5,35.5,3.2,35.9,3.1,36C3.1,36,3.1,36,3.1,36z M52.9,36L52.9,36L52.9,36z"/>
<path d="M28.7,37.8c-0.2,0-0.5,0-0.7,0c-4.8,0-9.6-0.2-14.3-0.8c-3.2-0.3-6.4-1-9.5-2.1c-1.4-0.6-3.1-1.6-3.1-3.1c0-4.8,17.6-6,26.9-6c10,0,27,1.3,27,6c0,1.8-2.3,2.7-3,3.1c-3.1,1.1-6.4,1.9-9.6,2.2C37.8,37.6,33.2,37.8,28.7,37.8z M28,35.7c4.7,0,9.4-0.2,14.1-0.8c3.1-0.3,6.2-1,9.1-2.1c1.4-0.6,1.6-1,1.7-1.1c-0.3-1.4-9-3.9-24.8-3.9c-15.7,0-24.5,2.6-24.9,4l0,0c0,0,0.2,0.4,1.8,1.2c2.8,1,5.9,1.7,9,2C18.6,35.5,23.3,35.8,28,35.7z M52.9,31.8L52.9,31.8L52.9,31.8z"/>
<g>
	<path d="M8.6,20.9v-10h4.4c0.7,0,1.4,0.1,2,0.3c0.5,0.2,0.9,0.5,1.1,1c0.3,0.5,0.4,1,0.4,1.5c0,0.6-0.2,1.3-0.6,1.7c-0.6,0.5-1.3,0.9-2.1,0.9c0.3,0.1,0.6,0.3,0.8,0.5c0.4,0.4,0.8,0.8,1.1,1.3l1.7,2.7h-1.7l-1.3-2.1c-0.4-0.6-0.7-1.1-1-1.4c-0.2-0.3-0.4-0.5-0.7-0.7c-0.2-0.1-0.4-0.2-0.6-0.3c-0.2,0-0.5,0-0.7,0H10v4.5L8.6,20.9z M10,15.3h2.9c0.5,0,1,0,1.4-0.2c0.3-0.1,0.6-0.3,0.8-0.6c0.2-0.3,0.3-0.6,0.3-0.9c0-0.4-0.2-0.9-0.5-1.2c-0.5-0.3-1.1-0.5-1.7-0.4H10V15.3z"/>
	<path d="M10,21.2C10,21.2,10,21.2,10,21.2l-1.4,0c-0.1,0-0.2-0.1-0.2-0.3v-10c0-0.1,0.1-0.3,0.3-0.3h4.4c0.7,0,1.4,0.1,2.1,0.3c0.5,0.2,1,0.6,1.3,1.1c0.3,0.5,0.5,1.1,0.5,1.6c0,0.7-0.2,1.4-0.7,1.9c-0.5,0.4-1,0.7-1.6,0.9c0.1,0.1,0.2,0.1,0.2,0.2c0.4,0.4,0.8,0.9,1.2,1.4l1.7,2.7c0,0.1,0.1,0.2,0,0.3s-0.1,0.1-0.2,0.1h-1.7c-0.1,0-0.2,0-0.2-0.1l-1.3-2.1c-0.4-0.6-0.7-1-1-1.3c-0.2-0.3-0.4-0.5-0.6-0.6c-0.2-0.1-0.3-0.2-0.5-0.2c-0.2,0-0.4,0-0.7,0l-1.2,0v4.2c0,0.1,0,0.1-0.1,0.2C10.1,21.2,10.1,21.2,10,21.2z M8.9,20.6l0.9,0v-4.2c0-0.1,0.1-0.3,0.3-0.3h1.5c0.2,0,0.5,0,0.8,0c0.3,0.1,0.5,0.2,0.7,0.3c0.3,0.2,0.5,0.5,0.7,0.7c0.3,0.3,0.6,0.8,1,1.4l1.3,2h1.1l-1.5-2.3c-0.3-0.5-0.7-0.9-1.1-1.3c-0.2-0.2-0.5-0.3-0.7-0.5c-0.1,0-0.2-0.2-0.1-0.3s0.1-0.2,0.2-0.2c0.7-0.1,1.4-0.4,2-0.9c0.4-0.4,0.6-1,0.5-1.5c0-0.5-0.1-1-0.4-1.4c-0.2-0.4-0.6-0.7-1-0.9c-0.6-0.2-1.2-0.3-1.9-0.3H8.9V20.6z M13,15.5c-0.1,0-0.1,0-0.2,0H10c-0.1,0-0.3-0.1-0.3-0.3V12c0-0.1,0.1-0.3,0.3-0.3h3.1c0.6-0.1,1.3,0.1,1.8,0.5c0.4,0.4,0.6,0.9,0.6,1.4c0,0.4-0.1,0.7-0.3,1c-0.2,0.3-0.5,0.6-0.9,0.7C13.9,15.5,13.5,15.5,13,15.5z M10.3,15h2.6c0.5,0,0.9,0,1.3-0.2c0.3-0.1,0.5-0.3,0.6-0.5c0.1-0.2,0.2-0.5,0.2-0.8c0-0.4-0.1-0.7-0.4-1c-0.4-0.3-0.9-0.4-1.5-0.4l-2.9,0V15z"/>
</g>
<g>
	<path d="M18.8,20.9l3.9-10h1.4l4.1,10h-1.5l-1.2-3h-4.2l-1.1,3H18.8z M21.7,16.8h3.4L24,14c-0.3-0.8-0.6-1.5-0.7-2.1c-0.1,0.6-0.3,1.3-0.5,1.9L21.7,16.8z"/>
	<path d="M28.2,21.1h-1.5c-0.1,0-0.2-0.1-0.2-0.2l-1.1-2.8h-3.8l-1,2.8c0,0.1-0.1,0.2-0.2,0.2h-1.4c-0.1,0-0.2,0-0.2-0.1c0-0.1-0.1-0.2,0-0.2l3.9-10c0-0.1,0.1-0.2,0.2-0.2H24c0.1,0,0.2,0.1,0.2,0.2l4.1,10c0,0.1,0,0.2,0,0.2C28.3,21.1,28.2,21.1,28.2,21.1z M26.8,20.6h1l-3.9-9.5h-1.1l-3.7,9.5H20l1-2.8c0-0.1,0.1-0.2,0.2-0.2h4.2c0.1,0,0.2,0.1,0.2,0.2L26.8,20.6z M25.1,17h-3.4c-0.1,0-0.2,0-0.2-0.1c0-0.1-0.1-0.2,0-0.2l1.1-2.9c0.2-0.6,0.4-1.2,0.5-1.9c0-0.1,0.1-0.2,0.2-0.2c0.1,0,0.2,0.1,0.3,0.2c0.1,0.5,0.4,1.2,0.7,2.1l1.1,2.8c0,0.1,0,0.2,0,0.2C25.2,17,25.1,17,25.1,17z M22,16.5h2.7l-0.9-2.4c-0.2-0.4-0.3-0.9-0.4-1.2c-0.1,0.4-0.2,0.7-0.3,1.1L22,16.5z"/>
</g>
<g>
	<path d="M29.4,20.9v-10h1.3v10H29.4z"/>
	<path d="M30.8,21.1h-1.3c-0.1,0-0.3-0.1-0.3-0.3v-10c0-0.1,0.1-0.3,0.3-0.3h1.3c0.1,0,0.3,0.1,0.3,0.3v10C31,21,30.9,21.1,30.8,21.1z M29.7,20.6h0.8v-9.5h-0.8V20.6z"/>
</g>
<g>
	<path d="M32.5,20v-8.2c0-0.6,0.4-1,1-1H36c0.6,0,1.2,0,1.8,0.1c0.5,0.1,1,0.4,1.5,0.7c0.5,0.5,0.9,1,1.2,1.7c0.3,0.8,0.4,1.6,0.4,2.4c0,0.7-0.1,1.3-0.3,2c-0.1,0.5-0.4,1-0.7,1.5c-0.2,0.4-0.6,0.7-0.9,0.9c-0.4,0.2-0.8,0.4-1.2,0.5c-0.5,0.1-1.1,0.2-1.6,0.2h-2.8C32.9,20.8,32.6,20.5,32.5,20z M33.9,19.7H36c0.5,0,1.1,0,1.6-0.2c0.3-0.1,0.6-0.3,0.9-0.5c0.3-0.4,0.6-0.8,0.7-1.3c0.2-0.6,0.3-1.3,0.3-1.9c0-0.8-0.1-1.7-0.5-2.4c-0.3-0.5-0.7-0.9-1.3-1.1C37.1,12.1,36.6,12,36,12h-2.1L33.9,19.7z"/>
	<path d="M36.3,21.1C36.2,21.1,36.2,21.1,36.3,21.1l-2.9,0c-0.6,0-1.1-0.5-1.1-1.1c0,0,0,0,0,0v-8.2c0-0.7,0.6-1.3,1.3-1.3H36c0.6,0,1.2,0,1.8,0.1c0.6,0.1,1.1,0.4,1.6,0.8c0.6,0.5,1,1.1,1.3,1.8c0.3,0.8,0.4,1.6,0.4,2.5c0,0.7-0.1,1.4-0.3,2.1c-0.2,0.5-0.4,1.1-0.7,1.5c-0.3,0.4-0.6,0.7-1,1c-0.4,0.3-0.8,0.4-1.3,0.5C37.3,21,36.8,21.1,36.3,21.1z M36.2,20.6c0.5,0,1,0,1.6-0.2c0.4-0.1,0.8-0.2,1.1-0.5c0.3-0.2,0.6-0.5,0.8-0.8c0.3-0.4,0.5-0.9,0.6-1.4c0.2-0.6,0.3-1.3,0.3-1.9c0-0.8-0.1-1.6-0.4-2.3c-0.2-0.6-0.6-1.2-1.1-1.6c-0.4-0.3-0.9-0.6-1.4-0.7c-0.6-0.1-1.1-0.2-1.7-0.1h-2.5c-0.4,0-0.8,0.3-0.8,0.8V20c0,0.3,0.3,0.6,0.6,0.6H36.2z M36.2,19.9c-0.1,0-0.1,0-0.2,0h-2.1c-0.1,0-0.3-0.1-0.3-0.2l0-7.7c0-0.1,0-0.1,0.1-0.2s0.1-0.1,0.2-0.1H36c0.6,0,1.2,0.1,1.8,0.2c0.6,0.3,1.1,0.7,1.4,1.2c0.4,0.8,0.6,1.7,0.6,2.6c0,0.7-0.1,1.3-0.3,2c-0.2,0.5-0.4,1-0.8,1.4c-0.3,0.3-0.6,0.5-1,0.6C37.2,19.9,36.7,19.9,36.2,19.9z M34.1,19.4H36c0.5,0,1,0,1.5-0.2c0.3-0.1,0.6-0.2,0.8-0.5c0.3-0.3,0.5-0.7,0.7-1.2c0.2-0.6,0.3-1.2,0.2-1.9c0-0.8-0.1-1.6-0.5-2.3c-0.2-0.4-0.6-0.8-1.1-1c-0.5-0.2-1-0.2-1.6-0.2h-1.9L34.1,19.4z"/>
</g>
<g>
	<path d="M47.3,20.9h-1.2v-7.8c-0.4,0.3-0.7,0.6-1.2,0.9c-0.4,0.3-0.8,0.5-1.3,0.6v-1.2c0.7-0.3,1.3-0.7,1.8-1.2c0.4-0.4,0.8-0.8,1.1-1.3h0.8L47.3,20.9z"/>
	<path d="M47.3,21.2h-1.2c-0.1,0-0.3-0.1-0.3-0.3v-7.3c-0.3,0.2-0.5,0.4-0.8,0.5c-0.4,0.3-0.9,0.5-1.3,0.7c-0.1,0-0.2,0-0.2,0c-0.1,0-0.1-0.1-0.1-0.2v-1.2c0-0.1,0.1-0.2,0.1-0.2c0.6-0.3,1.2-0.7,1.7-1.1c0.4-0.4,0.8-0.8,1-1.3c0-0.1,0.1-0.1,0.2-0.1h0.8c0.1,0,0.3,0.1,0.3,0.2l0,10.1c0,0.1,0,0.1-0.1,0.2C47.5,21.2,47.4,21.2,47.3,21.2z M46.4,20.7h0.7l0-9.6h-0.4c-0.3,0.5-0.6,0.9-1.1,1.3c-0.5,0.5-1.1,0.8-1.7,1.1v0.7c0.3-0.1,0.6-0.3,0.9-0.5c0.4-0.2,0.8-0.5,1.1-0.8c0.1-0.1,0.2-0.1,0.3,0c0.1,0,0.1,0.1,0.1,0.2V20.7z"/>
</g>
</svg>
