<svg xmlns="http://www.w3.org/2000/svg" viewBox="0 0 56 56">
<path d="M23.1,36c-1.3,0-2.5-0.7-3.2-1.7l-1.3-2c-0.5-0.8-0.8-2-0.5-3c0.2-0.8,0.6-1.5,1.3-2l27.3-16.7c1.6-1.1,3.9-0.7,5.1,1c1.1,1.7,0.7,4-1,5.1l-26,18.8C24.2,35.9,23.7,36,23.1,36z M48.7,12.1c-0.3,0-0.7,0.1-0.9,0.3L20.4,29.1c-0.2,0.2-0.4,0.5-0.4,0.7c-0.1,0.5,0,1.1,0.3,1.5c0,0,0,0,0,0l1.3,2c0.4,0.7,1.5,1,2,0.7l26-18.7c0.8-0.5,1-1.6,0.5-2.4C49.8,12.3,49.3,12.1,48.7,12.1z"/>
<path d="M3.9,44.9c-0.4,0-0.6,0-0.8-0.1c-0.3-0.2-0.6-0.6-0.6-1c0-0.7,0.7-1.1,1.5-1.4c2.3-1,3.2-3.1,4.2-5.2c0.3-0.5,0.5-1.1,0.8-1.6c0.6-1.2,1.5-2.3,2.6-3.2l0.8-0.5c1.8-0.9,3.8-0.6,5.3,0.5c1.1,0.8,1.7,2,1.9,3.3c0.2,1.3-0.2,2.6-1,3.7c-0.4,0.4-0.8,0.8-1.2,1.1C14.3,42.6,6.6,44.9,3.9,44.9z M14.7,33.3c-0.4,0-0.9,0.1-1.3,0.3L12.9,34c-0.8,0.6-1.5,1.5-2,2.5c-0.3,0.5-0.5,1-0.7,1.5c-0.7,1.4-1.4,3-2.6,4.3c2.9-0.7,6.7-2,8.8-3.4c0,0,0,0,0,0c0.3-0.2,0.6-0.4,0.8-0.7c0.5-0.6,0.7-1.4,0.6-2.2c-0.1-0.8-0.5-1.5-1.1-2C16,33.5,15.4,33.3,14.7,33.3z"/>
</svg>
