<svg xmlns="http://www.w3.org/2000/svg" viewBox="0 0 56 56">
<path d="M47.7,37.2c-0.6,0-1-0.4-1-1v-11c0-0.3,0-0.6,0-0.9C46.4,14,37.8,5.9,27.6,6.1c-5,0.1-9.6,2.2-13.1,5.8c-3.4,3.6-5.3,8.3-5.2,13.3l0,11c0,0.6-0.4,1-1,1s-1-0.4-1-1v-11c-0.1-5.5,1.9-10.7,5.7-14.7c3.8-4,9-6.3,14.5-6.4c11.4-0.3,20.9,8.8,21.1,20.2c0,0.3,0,0.6,0,0.9v11C48.7,36.7,48.2,37.2,47.7,37.2z"/>
<path d="M17.1,45.3h-0.5c-2.5,0-4.8-1-6.6-2.8s-2.7-4.1-2.7-6.6c0-0.5,0-1,0.1-1.4c0.8-4.6,4.7-7.9,9.4-7.9c0,0,0.1,0,0.1,0h0.2c1.4,0,2.5,1.1,2.5,2.5v13.7C19.6,44.2,18.5,45.3,17.1,45.3z M16.8,28.6c-3.6,0-6.7,2.6-7.4,6.2c-0.1,0.4-0.1,0.7-0.1,1.1c0,2,0.8,3.8,2.1,5.2c1.4,1.4,3.2,2.2,5.2,2.2h0.5c0.3,0,0.5-0.2,0.5-0.5V29.1c0-0.3-0.2-0.5-0.5-0.5h-0.2C16.9,28.6,16.8,28.6,16.8,28.6z"/>
<path d="M39.4,45.3h-2c-0.6,0-1-0.4-1-1V29.1c0-1.4,1.1-2.5,2.5-2.5h0.2c0.1,0,0.1,0,0.2,0c4.6,0,8.5,3.3,9.3,7.8c0.1,0.5,0.1,1,0.1,1.5c0,2.5-1,4.8-2.7,6.6C44.2,44.3,41.8,45.3,39.4,45.3z M38.3,43.3h1c2,0,3.8-0.8,5.2-2.2c1.4-1.4,2.1-3.2,2.1-5.2c0-0.4,0-0.8-0.1-1.1c-0.6-3.6-3.8-6.2-7.5-6.2c0,0,0,0,0,0h-0.2c-0.3,0-0.5,0.2-0.5,0.5V43.3z"/>
<path d="M33.6,51.5h-5c-0.6,0-1-0.4-1-1s0.4-1,1-1h5c1.6,0,2.8-1.8,2.8-4.3v-1.8c0-0.6,0.4-1,1-1s1,0.4,1,1v1.8C38.3,48.9,36.4,51.5,33.6,51.5z"/>
</svg>
