<svg xmlns="http://www.w3.org/2000/svg" viewBox="0 0 56 56">
<path d="M52.3,46.5H3.7c-1.6,0-2.9-1.3-2.9-2.9V12.5c0-1.6,1.3-2.9,2.9-2.9h48.7c1.6,0,2.9,1.3,2.9,2.9v31.1C55.3,45.1,54,46.5,52.3,46.5z M3.7,11.5c-0.5,0-0.9,0.4-0.9,0.9v31.1c0,0.5,0.4,0.9,0.9,0.9h48.7c0.5,0,0.9-0.4,0.9-0.9V12.5c0-0.5-0.4-0.9-0.9-0.9H3.7z"/>
<rect x="1.8" y="16.3" width="52.5" height="2"/>
<path d="M55.3,38.7H42.1c-1.6,0-2.9-1.3-2.9-2.9v-7.5c0-1.6,1.3-2.9,2.9-2.9h13.2V38.7z M42.1,27.4c-0.5,0-0.9,0.4-0.9,0.9v7.5c0,0.5,0.4,0.9,0.9,0.9h11.2v-9.4H42.1z"/>
<path d="M47.2,35.3c-1.8,0-3.2-1.4-3.2-3.2c0-1.8,1.4-3.2,3.2-3.2s3.2,1.4,3.2,3.2C50.4,33.8,49,35.3,47.2,35.3z M47.2,30.8c-0.7,0-1.2,0.5-1.2,1.2s0.5,1.2,1.2,1.2s1.2-0.5,1.2-1.2S47.9,30.8,47.2,30.8z"/>
</svg>
