<svg xmlns="http://www.w3.org/2000/svg" viewBox="0 0 56 56">
<path d="M52.7,49.5H3.3c-1.4,0-2.6-1.2-2.6-2.6V13.2c0-1.4,1.2-2.6,2.6-2.6h49.4c1.4,0,2.6,1.2,2.6,2.6V47C55.3,48.4,54.1,49.5,52.7,49.5z M3.3,12.6c-0.3,0-0.6,0.3-0.6,0.6V47c0,0.3,0.3,0.6,0.6,0.6h49.4c0.3,0,0.6-0.3,0.6-0.6V13.2c0-0.3-0.3-0.6-0.6-0.6H3.3z"/>
<path d="M54,21.6H2c-0.6,0-1-0.4-1-1s0.4-1,1-1h52c0.6,0,1,0.4,1,1S54.6,21.6,54,21.6z"/>
<path d="M14.2,16.8c-0.6,0-1-0.4-1-1V7.5c0-0.6,0.4-1,1-1s1,0.4,1,1v8.3C15.2,16.3,14.8,16.8,14.2,16.8z"/>
<path d="M23.4,16.8c-0.6,0-1-0.4-1-1V7.5c0-0.6,0.4-1,1-1s1,0.4,1,1v8.3C24.4,16.3,24,16.8,23.4,16.8z"/>
<path d="M32.6,16.8c-0.6,0-1-0.4-1-1V7.5c0-0.6,0.4-1,1-1s1,0.4,1,1v8.3C33.6,16.3,33.2,16.8,32.6,16.8z"/>
<path d="M41.8,16.8c-0.6,0-1-0.4-1-1V7.5c0-0.6,0.4-1,1-1s1,0.4,1,1v8.3C42.8,16.3,42.3,16.8,41.8,16.8z"/>
<path d="M28,44.8c-5.5,0-10.1-4.5-10.1-10.1S22.5,24.7,28,24.7c5.5,0,10.1,4.5,10.1,10.1S33.5,44.8,28,44.8z M28,26.7c-4.4,0-8.1,3.6-8.1,8.1s3.6,8.1,8.1,8.1s8.1-3.6,8.1-8.1S32.4,26.7,28,26.7z"/>
<path d="M28,35.7c-0.6,0-1-0.4-1-1v-5.5c0-0.6,0.4-1,1-1c0.6,0,1,0.4,1,1v5.5C29,35.3,28.6,35.7,28,35.7z"/>
<path d="M32.3,35.7H28c-0.6,0-1-0.4-1-1s0.4-1,1-1h4.3c0.6,0,1,0.4,1,1S32.9,35.7,32.3,35.7z"/>
</svg>
