<svg xmlns="http://www.w3.org/2000/svg" viewBox="0 0 56 56">
<path d="M45.7,45.8c-0.1,0-0.2,0-0.2,0c-2.4-0.1-4.3-2-4.5-4.5c0-0.2,0-0.4,0-0.6c0.3-2.6,2.7-4.4,5.3-4.1c2.1,0.3,3.8,1.9,4.1,4.1c0,0.1,0.1,0.4,0.1,0.6l0,0.1l0,0.1C50.3,43.9,48.2,45.8,45.7,45.8z M45.7,38.6c-0.6,0-1.2,0.2-1.6,0.6c-0.6,0.4-0.9,1.1-1,1.8c0,0.1,0,0.2,0,0.3c0.1,1.4,1.2,2.5,2.6,2.6c0.7,0,1.4-0.2,1.9-0.7c0.5-0.5,0.8-1.1,0.9-1.8c0-0.1,0-0.2,0-0.3c-0.2-1.3-1.1-2.3-2.3-2.4C45.9,38.6,45.8,38.6,45.7,38.6z"/>
<path d="M14.4,45.5c-2.6,0-4.7-2.1-4.7-4.7s2.1-4.7,4.7-4.7c2.6,0,4.7,2.1,4.7,4.7S17,45.5,14.4,45.5z M14.4,38.1c-1.5,0-2.7,1.2-2.7,2.7s1.2,2.7,2.7,2.7s2.7-1.2,2.7-2.7S15.9,38.1,14.4,38.1z"/>
<path d="M36.8,41.8H18.1c-0.3,0-0.5-0.1-0.7-0.3c-0.2-0.2-0.3-0.5-0.3-0.7c0.1-1.5-1.1-2.8-2.6-2.8c-0.7,0-1.4,0.2-1.9,0.7c-0.5,0.5-0.9,1.1-0.9,1.9c0,0.1,0,0.2,0,0.3c0,0.3-0.1,0.5-0.3,0.7c-0.2,0.2-0.5,0.3-0.7,0.3H4.3c-0.6,0-1-0.4-1-1V11c0-0.6,0.4-1,1-1h32.5c0.6,0,1,0.4,1,1v29.8C37.8,41.3,37.4,41.8,36.8,41.8z M19.1,39.8h16.8V12H5.3v27.8h4.5c0.2-1,0.7-2,1.5-2.7c0.9-0.8,2.1-1.3,3.4-1.2C16.9,36,18.7,37.7,19.1,39.8z"/>
<path d="M54.6,41.8h-5.2c-0.5,0-0.9-0.4-1-0.9c-0.1-0.7-0.5-1.3-1-1.8c-0.6-0.4-1.3-0.6-2-0.5c-1.2,0.2-2.2,1.1-2.3,2.3c-0.1,0.5-0.5,0.9-1,0.9h-5.2c-0.6,0-1-0.4-1-1V27.1c0-0.6,0.4-1,1-1h17.8c0.6,0,1,0.4,1,1v13.7C55.6,41.3,55.2,41.8,54.6,41.8z M50.2,39.8h3.4V28.1H37.8v11.7h3.4c0.6-1.7,2-2.9,3.9-3.2C47.4,36.3,49.5,37.7,50.2,39.8z"/>
<path d="M54.6,28.1H36.8c-0.6,0-1-0.4-1-1V14.2c0-0.6,0.4-1,1-1h4.6c2,0,3.9,0.9,5.1,2.4l8.8,10.8c0.2,0.3,0.3,0.7,0.1,1.1C55.3,27.9,55,28.1,54.6,28.1z M37.8,26.1h14.7L45,16.9c-0.9-1.1-2.2-1.7-3.6-1.7h-3.6V26.1z"/>
<path d="M24.2,30.9H7c-0.6,0-1-0.4-1-1s0.4-1,1-1h17.2c0.6,0,1,0.4,1,1S24.7,30.9,24.2,30.9z"/>
<path d="M18.4,24.8h-17c-0.6,0-1-0.4-1-1s0.4-1,1-1h17c0.6,0,1,0.4,1,1S18.9,24.8,18.4,24.8z"/>
<path d="M27.6,18.8H12.6c-0.6,0-1-0.4-1-1s0.4-1,1-1h15.1c0.6,0,1,0.4,1,1S28.2,18.8,27.6,18.8z"/>
</svg>
