<svg xmlns="http://www.w3.org/2000/svg" viewBox="0 0 56 56">
<path d="M40.6,38.2c-1.9,0-3.8-0.7-5.3-2c-1.7-1.5-2.7-3.7-2.7-6c0-4.4,3.6-8,8-8c4,0,7.3,2.9,7.9,6.7l0.1,0l0,1.4c0,2.3-1,4.5-2.7,6C44.4,37.5,42.5,38.2,40.6,38.2z M40.6,24.1c-3.3,0-6,2.7-6,6c0,1.7,0.7,3.4,2,4.5c2.3,2,5.7,2,8,0c1.2-1,1.9-2.4,2-3.9v-0.6C46.6,26.8,43.9,24.1,40.6,24.1z"/>
<path d="M53.1,45h-8.4c-0.6,0-1-0.4-1-1s0.4-1,1-1h8.4c0.1,0,0.2-0.1,0.3-0.2v-33c0-0.1-0.1-0.3-0.3-0.3h-50l0,0C3,9.5,2.9,9.6,2.9,9.7l0,33c0,0.1,0.1,0.2,0.3,0.2h33.1c0.6,0,1,0.4,1,1s-0.4,1-1,1H3.1c-1.2,0-2.2-1-2.3-2.2v-33c0-1.3,1-2.2,2.2-2.2c0,0,0,0,0,0h50c1.2,0,2.3,1,2.3,2.3v33C55.3,44,54.3,45,53.1,45z"/>
<path d="M44.5,48.5c-0.2,0-0.5-0.1-0.7-0.2l-3.3-2.9l-3.3,2.9c-0.3,0.3-0.7,0.3-1.1,0.2c-0.4-0.2-0.6-0.5-0.6-0.9V36c0-0.4,0.2-0.7,0.6-0.9c0.3-0.2,0.8-0.1,1.1,0.1c2,1.5,4.8,1.5,6.8,0c0.3-0.2,0.7-0.3,1.1-0.1c0.3,0.2,0.6,0.5,0.6,0.9v11.5c0,0.4-0.2,0.7-0.6,0.9C44.8,48.5,44.7,48.5,44.5,48.5z M40.5,43c0.2,0,0.5,0.1,0.7,0.2l2.3,2.1v-7.6c-1.9,0.8-4.1,0.8-6,0v7.6l2.3-2.1C40.1,43.1,40.3,43,40.5,43z"/>
<path d="M36.6,36c-0.3,0-0.5-0.1-0.7-0.3c-0.2-0.2-0.3-0.4-0.3-0.7c0-0.1,0-0.3,0.1-0.4c0-0.1,0.1-0.2,0.2-0.3c0.4-0.4,1-0.4,1.4,0c0.1,0.1,0.2,0.2,0.2,0.3c0,0.1,0.1,0.3,0.1,0.4c0,0.3-0.1,0.5-0.3,0.7C37.1,35.9,36.9,36,36.6,36z"/>
<path d="M44.5,36c-0.1,0-0.3,0-0.4-0.1s-0.2-0.1-0.3-0.2c-0.2-0.2-0.3-0.5-0.3-0.7c0-0.1,0-0.3,0.1-0.4c0-0.1,0.1-0.2,0.2-0.3c0.1-0.1,0.2-0.2,0.3-0.2c0.4-0.2,0.8-0.1,1.1,0.2c0.1,0.1,0.2,0.2,0.2,0.3c0,0.1,0.1,0.3,0.1,0.4c0,0.3-0.1,0.5-0.3,0.7c-0.1,0.1-0.2,0.2-0.3,0.2S44.7,36,44.5,36z"/>
<path d="M29.2,19.3h-20c-0.6,0-1-0.4-1-1s0.4-1,1-1h20c0.6,0,1,0.4,1,1S29.8,19.3,29.2,19.3z"/>
<path d="M22.7,25H9.2c-0.6,0-1-0.4-1-1s0.4-1,1-1h13.5c0.6,0,1,0.4,1,1S23.3,25,22.7,25z"/>
</svg>
