<svg xmlns="http://www.w3.org/2000/svg" viewBox="0 0 56 56">
<path d="M5.4,32.2c-0.6,0-1-0.4-1-1v-6.3c0-0.6,0.4-1,1-1s1,0.4,1,1v6.3C6.4,31.7,6,32.2,5.4,32.2z"/>
<path d="M49.6,47.8H6.4c-2.9,0-5.2-2.3-5.2-5.2V13.4c0-2.9,2.3-5.2,5.2-5.2h43.1c2.9,0,5.2,2.3,5.2,5.2v29.1C54.8,45.4,52.4,47.8,49.6,47.8z M6.4,10.3c-1.8,0-3.2,1.4-3.2,3.2v29.1c0,1.8,1.4,3.2,3.2,3.2h43.1c1.8,0,3.2-1.4,3.2-3.2V13.4c0-1.8-1.4-3.2-3.2-3.2H6.4z"/>
<path d="M8.9,47.8c-0.6,0-1-0.4-1-1V9.3c0-0.6,0.4-1,1-1s1,0.4,1,1v37.5C9.9,47.3,9.4,47.8,8.9,47.8z"/>
<path d="M41.8,38.9c-0.2,0-0.4-0.1-0.6-0.2l-4.9-4.8L34.2,36c-0.2,0.2-0.5,0.3-0.7,0.2c-0.3-0.1-0.5-0.2-0.6-0.5L28,23.4c-0.1-0.3,0-0.6,0.2-0.9c0.2-0.2,0.6-0.3,0.8-0.2l12.5,4.5c0.3,0.1,0.4,0.3,0.5,0.6c0.1,0.3,0,0.5-0.2,0.7l-2.1,2.1l4.9,4.8c0.2,0.1,0.2,0.4,0.2,0.6c0,0.2-0.1,0.4-0.2,0.6l-2.3,2.4C42.2,38.8,42,38.9,41.8,38.9z M36.3,31.9c0.2,0,0.4,0.1,0.6,0.2l4.9,4.8l1.2-1.2l-4.9-4.8c-0.2-0.1-0.2-0.4-0.2-0.6s0.1-0.4,0.2-0.6l1.8-1.8l-9.6-3.5l3.7,9.5l1.8-1.8C35.9,32,36.1,31.9,36.3,31.9z"/>
</svg>
