<svg xmlns="http://www.w3.org/2000/svg" viewBox="0 0 56 56">
<path d="M50.9,47.1H5.1c-2.4,0-4.3-1.9-4.3-4.3V13.2c0-2.4,1.9-4.3,4.3-4.3h45.8c2.4,0,4.3,1.9,4.3,4.3v29.7C55.2,45.2,53.3,47.1,50.9,47.1z M5.1,10.9c-1.3,0-2.3,1-2.3,2.3v29.7c0,1.3,1,2.3,2.3,2.3h45.8c1.3,0,2.3-1,2.3-2.3V13.2c0-1.3-1-2.3-2.3-2.3H5.1z"/>
<path d="M6.5,42.7H1.8c-0.6,0-1-0.4-1-1V26c0-0.6,0.4-1,1-1h4.7c0.6,0,1,0.4,1,1v15.7C7.5,42.3,7,42.7,6.5,42.7z M2.8,40.7h2.7V27H2.8V40.7z"/>
<path d="M46.5,41.8H33.5c-0.6,0-1-0.4-1-1V15.2c0-0.6,0.4-1,1-1h12.9c0.6,0,1,0.4,1,1v25.6C47.5,41.4,47,41.8,46.5,41.8z M34.5,39.8h10.9V16.2H34.5V39.8z"/>
<path d="M27.8,41.8H14.9c-0.6,0-1-0.4-1-1V15.2c0-0.6,0.4-1,1-1h12.9c0.6,0,1,0.4,1,1v25.6C28.8,41.4,28.4,41.8,27.8,41.8z M15.9,39.8h10.9V16.2H15.9V39.8z"/>
</svg>
