<svg xmlns="http://www.w3.org/2000/svg" viewBox="0 0 56 56">
<path d="M44.3,45.4c-0.1,0-0.2,0-0.2,0c-2.4-0.1-4.3-2-4.4-4.4c0-0.2,0-0.4,0-0.6c0.2-1.3,0.8-2.4,1.8-3.2c1-0.8,2.2-1.1,3.5-0.9c2.1,0.3,3.8,1.9,4.1,4.1c0,0.1,0.1,0.4,0.1,0.6l0,0.1l0,0.1C48.9,43.5,46.8,45.4,44.3,45.4z M44.3,38.2c-0.6,0-1.2,0.2-1.6,0.6c-0.6,0.4-0.9,1.1-1,1.8c0,0.1,0,0.2,0,0.3c0.1,1.4,1.2,2.5,2.6,2.6c1.5,0.1,2.7-1,2.8-2.5c0-0.1,0-0.2,0-0.3c-0.2-1.3-1.1-2.3-2.3-2.4C44.5,38.2,44.4,38.2,44.3,38.2z"/>
<path d="M13,45.1c-2.6,0-4.7-2.1-4.7-4.7c0-2.6,2.1-4.7,4.7-4.7c2.6,0,4.7,2.1,4.7,4.7C17.7,43,15.6,45.1,13,45.1z M13,37.7c-1.5,0-2.7,1.2-2.7,2.7c0,1.5,1.2,2.7,2.7,2.7s2.7-1.2,2.7-2.7C15.7,38.9,14.5,37.7,13,37.7z"/>
<path d="M35.4,41.4H16.7c-0.5,0-1-0.4-1-0.9c0-0.7-0.4-1.4-0.9-1.9c-0.5-0.5-1.2-0.7-1.9-0.7c-1.4,0.1-2.5,1.2-2.6,2.6c0,0.5-0.5,0.9-1,0.9H2.9c-0.6,0-1-0.4-1-1v-29c0-0.6,0.4-1,1-1h32.5c0.6,0,1,0.4,1,1v29C36.4,40.9,35.9,41.4,35.4,41.4z M17.5,39.4h16.8v-27H3.9v27h4.6c0.5-1.9,2.2-3.4,4.3-3.5c1.3-0.1,2.5,0.4,3.4,1.2C16.8,37.7,17.3,38.5,17.5,39.4z"/>
<path d="M53.2,41.4h-5.2c-0.5,0-0.9-0.4-1-0.9c-0.1-0.7-0.5-1.3-1-1.8c-0.6-0.4-1.3-0.6-2-0.5c-1.2,0.2-2.2,1.1-2.3,2.3c-0.1,0.5-0.5,0.9-1,0.9h-5.2c-0.6,0-1-0.4-1-1V26.7c0-0.6,0.4-1,1-1h17.8c0.6,0,1,0.4,1,1v13.7C54.2,40.9,53.7,41.4,53.2,41.4z M48.7,39.4h3.4V27.7H36.4v11.7h3.4c0.6-1.7,2-2.9,3.9-3.2c1.2-0.2,2.5,0.2,3.5,0.9C47.9,37.7,48.4,38.5,48.7,39.4z"/>
<path d="M53.2,27.7H35.4c-0.6,0-1-0.4-1-1V13.8c0-0.6,0.4-1,1-1H40c2,0,3.9,0.9,5.1,2.4l8.8,10.8c0.2,0.3,0.3,0.7,0.1,1.1C53.9,27.5,53.5,27.7,53.2,27.7z M36.4,25.7h14.7l-7.5-9.2c-0.9-1.1-2.2-1.7-3.6-1.7h-3.6V25.7z"/>
<path d="M19,31.4c-0.3,0-0.5-0.1-0.7-0.3l-7.7-7.7c-0.4-0.4-0.4-1,0-1.4s1-0.4,1.4,0l7.7,7.7c0.4,0.4,0.4,1,0,1.4C19.5,31.3,19.2,31.4,19,31.4z"/>
<path d="M19,31.4c-0.3,0-0.5-0.1-0.7-0.3c-0.4-0.4-0.4-1,0-1.4l9.8-9.8c0.4-0.4,1-0.4,1.4,0s0.4,1,0,1.4l-9.8,9.8C19.5,31.3,19.2,31.4,19,31.4z"/>
</svg>
