<svg xmlns="http://www.w3.org/2000/svg" viewBox="0 0 56 56">
<path d="M54.5,46.7h-53c-0.6,0-1-0.4-1-1V10.3c0-0.6,0.4-1,1-1h53c0.6,0,1,0.4,1,1v35.4C55.5,46.3,55.1,46.7,54.5,46.7z M2.5,44.7h51V11.3h-51V44.7z"/>
<path d="M54.5,18.6h-53c-0.6,0-1-0.4-1-1s0.4-1,1-1h53c0.6,0,1,0.4,1,1S55.1,18.6,54.5,18.6z"/>
<path d="M6.5,46.7c-0.6,0-1-0.4-1-1V17.6c0-0.6,0.4-1,1-1s1,0.4,1,1v28.2C7.5,46.3,7.1,46.7,6.5,46.7z"/>
<path d="M49.5,46.7c-0.6,0-1-0.4-1-1V17.6c0-0.6,0.4-1,1-1s1,0.4,1,1v28.2C50.5,46.3,50,46.7,49.5,46.7z"/>
<path d="M49.5,42H6.5c-0.6,0-1-0.4-1-1s0.4-1,1-1h42.9c0.6,0,1,0.4,1,1S50,42,49.5,42z"/>
</svg>
