<svg xmlns="http://www.w3.org/2000/svg" viewBox="0 0 56 56">
<path d="M28,49.5c-0.8,0-1.7-0.2-2.4-0.7c-3.2-2-9.5-5.8-11.8-7.2c-3.9-2.3-3.5-8.1-3.5-8.4l0-19.5c0-0.6,0.4-1,1-1c10.7,0,15.9-5.9,16-6c0.4-0.4,1.1-0.4,1.5,0c0.1,0.1,5.4,6,16,6c0.6,0,1,0.4,1,1v19.6c0,0.2,0.5,6-3.5,8.3h0c-2.4,1.4-8.7,5.1-11.8,7.2C29.7,49.3,28.8,49.5,28,49.5z M12.3,14.8v18.6c0,0.1-0.3,4.9,2.5,6.5c2.4,1.4,8.7,5.2,11.9,7.2c0.8,0.5,1.9,0.5,2.7,0c3.2-2,9.5-5.8,11.9-7.2c2.8-1.7,2.5-6.4,2.5-6.5l0-18.7C35,14.5,29.8,10.6,28,8.9C26.2,10.6,21,14.5,12.3,14.8z M41.7,40.8L41.7,40.8L41.7,40.8z"/>
<g>
	<path d="M20.8,30.3l1.2-0.2c0.1,0.6,0.3,1.1,0.7,1.5c0.3,0.3,0.8,0.5,1.2,0.5c0.6,0,1.1-0.2,1.5-0.6c0.4-0.4,0.6-0.9,0.6-1.5c0-0.5-0.2-1-0.5-1.4c-0.4-0.4-0.9-0.6-1.4-0.5c-0.3,0-0.6,0.1-0.9,0.1l0.1-1.1h0.2c0.5,0,1-0.1,1.4-0.4c0.4-0.3,0.7-0.8,0.6-1.3c0-0.4-0.2-0.8-0.5-1.1c-0.3-0.3-0.7-0.5-1.2-0.4c-0.4,0-0.9,0.1-1.2,0.5c-0.4,0.4-0.6,0.8-0.6,1.4L21,25.5c0.1-0.7,0.5-1.4,1-1.9c0.6-0.5,1.3-0.7,2-0.7c0.5,0,1,0.1,1.5,0.4c0.4,0.2,0.8,0.6,1.1,1c0.2,0.4,0.4,0.8,0.4,1.3c0,0.4-0.1,0.8-0.4,1.2c-0.2,0.4-0.6,0.7-1,0.9c0.5,0.1,1,0.4,1.4,0.9c0.3,0.5,0.5,1,0.4,1.6c0,0.9-0.4,1.7-1,2.2c-0.7,0.6-1.5,0.9-2.4,0.9c-0.8,0-1.6-0.3-2.2-0.8C21.2,31.8,20.9,31.1,20.8,30.3z"/>
	<path d="M24.1,33.4c-0.1,0-0.2,0-0.2,0c-0.8,0-1.6-0.3-2.2-0.9c-0.6-0.6-1-1.4-1-2.2c0-0.1,0.1-0.2,0.2-0.3l1.2-0.2c0.1,0,0.3,0.1,0.3,0.2c0.1,0.5,0.3,1,0.7,1.4c0.3,0.2,0.7,0.4,1,0.4c0.5,0,1-0.2,1.3-0.5c0.4-0.3,0.5-0.8,0.5-1.3c0-0.5-0.2-0.9-0.5-1.2c-0.3-0.3-0.7-0.5-1.2-0.5c-0.3,0-0.5,0.1-0.8,0.1c-0.1,0-0.2,0-0.2,0C23,28.3,23,28.3,23,28.2l0.1-1.1c0-0.1,0.1-0.2,0.2-0.2h0.2c0.5,0,0.9-0.1,1.3-0.4c0.3-0.2,0.5-0.6,0.5-1c0-0.4-0.1-0.7-0.4-1c-0.3-0.3-0.6-0.4-1-0.4c-0.4,0-0.8,0.1-1,0.4c-0.3,0.3-0.5,0.7-0.5,1.2c0,0.1,0,0.1-0.1,0.2c-0.1,0-0.1,0.1-0.2,0L21,25.7c-0.1,0-0.2-0.1-0.2-0.3c0.1-0.8,0.5-1.5,1.1-2.1c0.6-0.5,1.4-0.8,2.2-0.7c0.6,0,1.1,0.1,1.6,0.4c0.5,0.2,0.9,0.6,1.2,1.1c0.3,0.4,0.4,0.9,0.4,1.4c0,0.5-0.1,0.9-0.4,1.3c-0.2,0.2-0.4,0.5-0.6,0.6c0.4,0.2,0.7,0.4,1,0.8c0.4,0.5,0.5,1.2,0.5,1.8c0,0.9-0.4,1.8-1.1,2.4C25.9,33,25,33.4,24.1,33.4z M24,32.9c0.9,0,1.7-0.3,2.3-0.8c0.6-0.5,0.9-1.3,0.9-2c0-0.5-0.1-1-0.4-1.5c-0.3-0.4-0.7-0.6-1.2-0.7c-0.1,0-0.2-0.1-0.2-0.2c0-0.1,0-0.2,0.1-0.3c0.4-0.2,0.7-0.4,0.9-0.8c0.2-0.3,0.3-0.7,0.3-1c0-0.4-0.1-0.8-0.3-1.2c-0.2-0.4-0.6-0.7-1-0.9c-0.4-0.2-0.9-0.3-1.4-0.3c-0.7,0-1.3,0.2-1.8,0.6c-0.4,0.4-0.7,0.9-0.9,1.5l0.7,0.1c0.1-0.5,0.3-0.9,0.6-1.2c0.4-0.4,0.9-0.5,1.4-0.5c0.5,0,1,0.2,1.3,0.5c0.4,0.3,0.6,0.8,0.5,1.3c0,0.6-0.2,1.1-0.7,1.5c-0.5,0.3-1,0.4-1.5,0.4l-0.1,0.5c0.2,0,0.4-0.1,0.6-0.1c0.6,0,1.2,0.2,1.6,0.6c0.4,0.4,0.6,1,0.6,1.6c0,0.6-0.2,1.2-0.7,1.7c-0.4,0.4-1,0.7-1.7,0.7c-0.5,0-1-0.2-1.4-0.5c-0.4-0.4-0.6-0.9-0.8-1.4l-0.8,0.1c0.1,0.6,0.4,1.2,0.9,1.7C22.5,32.7,23.2,32.9,24,32.9z"/>
</g>
<g>
	<path d="M35,25.4l-1.2,0.1c-0.1-0.4-0.2-0.7-0.5-1c-0.3-0.3-0.8-0.5-1.2-0.5c-0.4,0-0.7,0.1-1,0.3c-0.4,0.3-0.7,0.7-0.9,1.2c-0.3,0.7-0.4,1.5-0.4,2.3c0.3-0.4,0.6-0.8,1.1-1c0.4-0.2,0.9-0.3,1.3-0.3c0.8,0,1.6,0.3,2.1,0.9c0.6,0.6,0.9,1.5,0.9,2.3c0,0.6-0.1,1.2-0.4,1.8c-0.2,0.5-0.6,0.9-1.1,1.2c-0.5,0.3-1,0.4-1.6,0.4c-1,0-1.9-0.4-2.6-1.1c-0.8-1.1-1.1-2.4-1-3.7c-0.1-1.5,0.3-3,1.1-4.3c0.6-0.8,1.5-1.2,2.5-1.1C33.6,22.8,34.9,23.9,35,25.4C35,25.4,35,25.4,35,25.4z M30,29.7c0,0.4,0.1,0.8,0.3,1.2c0.2,0.4,0.4,0.7,0.8,0.9c0.3,0.2,0.6,0.3,1,0.3c0.5,0,1-0.2,1.3-0.6c0.4-0.5,0.6-1.1,0.6-1.7c0-0.6-0.2-1.2-0.5-1.6c-0.4-0.4-0.9-0.6-1.4-0.6c-0.5,0-1.1,0.2-1.4,0.6C30.2,28.5,30,29.1,30,29.7z"/>
	<path d="M31.9,33.4c-1,0-1.9-0.4-2.6-1.2c-0.8-1.2-1.2-2.5-1.1-3.9c-0.1-1.5,0.3-3.1,1.2-4.4c0.7-0.8,1.7-1.3,2.7-1.3c0.8,0,1.5,0.2,2.1,0.7c0.6,0.5,0.9,1.2,1,2c0,0.1-0.1,0.3-0.2,0.3l-1.2,0.1c-0.1,0-0.2-0.1-0.3-0.2c-0.1-0.3-0.2-0.7-0.4-0.9c-0.3-0.3-0.6-0.5-1-0.4c-0.3,0-0.6,0.1-0.9,0.3c-0.4,0.3-0.7,0.7-0.8,1.1c-0.2,0.5-0.3,1-0.3,1.5c0.2-0.2,0.4-0.4,0.7-0.5c0.5-0.2,1-0.4,1.5-0.4c0.9,0,1.7,0.3,2.3,1c0.6,0.7,1,1.6,0.9,2.5c0,0.6-0.1,1.3-0.4,1.9c-0.3,0.5-0.7,1-1.2,1.3c-0.5,0.3-1.1,0.5-1.7,0.5C32,33.4,32,33.4,31.9,33.4z M32.1,23.1c-0.9,0-1.7,0.4-2.2,1.1c-0.8,1.2-1.2,2.6-1.1,4.1c-0.1,1.3,0.2,2.6,1,3.6c0.6,0.7,1.4,1,2.3,1c0.5,0,1-0.1,1.5-0.4c0.4-0.3,0.8-0.7,1-1.1c0.3-0.5,0.4-1.1,0.4-1.6c0-0.8-0.3-1.6-0.8-2.2c-0.5-0.5-1.2-0.8-1.9-0.8c0,0,0,0,0,0c-0.4,0-0.9,0.1-1.2,0.3c-0.4,0.2-0.8,0.5-1,0.9C30,28,29.9,28.1,29.8,28c-0.1,0-0.2-0.1-0.2-0.2c0-0.8,0.1-1.6,0.4-2.4c0.2-0.5,0.6-1,1-1.4c0.3-0.2,0.7-0.4,1.2-0.4c0,0,0,0,0,0c0.5,0,1,0.2,1.4,0.6c0.2,0.3,0.4,0.6,0.5,1l0.7-0.1c-0.1-0.6-0.4-1.1-0.8-1.4c-0.5-0.4-1.1-0.6-1.8-0.6C32.1,23.1,32.1,23.1,32.1,23.1z M35,25.4L35,25.4L35,25.4z M35,25.4L35,25.4L35,25.4z M32,32.3c-0.4,0-0.8-0.1-1.1-0.3c-0.4-0.2-0.7-0.6-0.9-1c-0.2-0.4-0.3-0.9-0.3-1.3c0-0.6,0.2-1.3,0.6-1.7c0.4-0.4,1-0.7,1.6-0.7c0,0,0.1,0,0.1,0c0.6,0,1.1,0.2,1.5,0.7c0.4,0.5,0.7,1.2,0.6,1.8c0,0.7-0.2,1.3-0.6,1.9C33.2,32.1,32.6,32.3,32,32.3z M32,27.8c-0.5,0-0.9,0.2-1.2,0.5c-0.3,0.4-0.5,0.9-0.5,1.4c0,0,0,0,0,0c0,0.4,0.1,0.8,0.2,1.1c0.1,0.3,0.4,0.6,0.7,0.8c0.3,0.2,0.6,0.3,0.9,0.3c0.4,0,0.9-0.2,1.1-0.5c0.4-0.4,0.5-1,0.5-1.5c0-0.6-0.1-1.1-0.5-1.5C32.9,27.9,32.5,27.8,32,27.8C32,27.8,32,27.8,32,27.8z"/>
</g>
</svg>
