<svg xmlns="http://www.w3.org/2000/svg" viewBox="0 0 56 56">
<path d="M48.4,43.3H7.6c-1.8,0-3.2-1.4-3.2-3.2V16c0-1.8,1.4-3.2,3.2-3.2h40.8c1.8,0,3.2,1.4,3.2,3.2V40C51.6,41.8,50.2,43.3,48.4,43.3z M7.6,14.7c-0.7,0-1.2,0.6-1.2,1.2V40c0,0.7,0.6,1.2,1.2,1.2h40.8c0.7,0,1.2-0.6,1.2-1.2V16c0-0.7-0.6-1.2-1.2-1.2H7.6z"/>
<path d="M16.1,28.9h-4.4c-1.4,0-2.6-1.1-2.6-2.5v-3c0-1.4,1.1-2.5,2.6-2.5h4.4c1.4,0,2.5,1.1,2.5,2.5v3C18.6,27.7,17.5,28.9,16.1,28.9z M11.7,22.8c-0.3,0-0.6,0.2-0.6,0.5v3c0,0.3,0.2,0.5,0.6,0.5h4.4c0.3,0,0.5-0.2,0.5-0.5v-3c0-0.3-0.2-0.5-0.5-0.5H11.7z"/>
<path d="M39.7,28.4c-2,0-3.6-1.6-3.6-3.6s1.6-3.6,3.6-3.6c2,0,3.6,1.6,3.6,3.6S41.7,28.4,39.7,28.4z M39.7,23c-1,0-1.9,0.8-1.9,1.9s0.8,1.9,1.9,1.9c1,0,1.9-0.8,1.9-1.9S40.8,23,39.7,23z"/>
<path d="M44.2,28.4c-2,0-3.6-1.6-3.6-3.6s1.6-3.6,3.6-3.6c2,0,3.6,1.6,3.6,3.6S46.2,28.4,44.2,28.4z M44.2,23c-1,0-1.9,0.8-1.9,1.9s0.8,1.9,1.9,1.9c1,0,1.9-0.8,1.9-1.9S45.2,23,44.2,23z"/>
<path d="M16.9,35h-6.7c-0.6,0-1-0.4-1-1s0.4-1,1-1h6.7c0.6,0,1,0.4,1,1S17.4,35,16.9,35z"/>
<path d="M26.9,35h-6.7c-0.6,0-1-0.4-1-1s0.4-1,1-1h6.7c0.6,0,1,0.4,1,1S27.4,35,26.9,35z"/>
<path d="M36.9,35h-6.7c-0.6,0-1-0.4-1-1s0.4-1,1-1h6.7c0.6,0,1,0.4,1,1S37.5,35,36.9,35z"/>
<path d="M46.9,35h-6.7c-0.6,0-1-0.4-1-1s0.4-1,1-1h6.7c0.6,0,1,0.4,1,1S47.5,35,46.9,35z"/>
</svg>
