<svg xmlns="http://www.w3.org/2000/svg" viewBox="0 0 56 56">
<path d="M11.1,41.2c-0.6,0-1-0.4-1-1V15.8c0-0.6,0.4-1,1-1s1,0.4,1,1v24.5C12.1,40.8,11.7,41.2,11.1,41.2z"/>
<path d="M54.7,41.2H1.3c-0.6,0-1-0.4-1-1V15.8c0-0.6,0.4-1,1-1h53.4c0.6,0,1,0.4,1,1v24.5C55.7,40.8,55.3,41.2,54.7,41.2z M2.3,39.2h51.4V16.8H2.3V39.2z M50.7,37.4H36.6c-0.6,0-1-0.4-1-1v-5.5c0-0.6,0.4-1,1-1h14.1c0.6,0,1,0.4,1,1v5.5C51.7,37,51.3,37.4,50.7,37.4z M37.6,35.4h12.1v-3.5H37.6V35.4z"/>
<path d="M43.7,41.2c-0.6,0-1-0.4-1-1v-3.8c0-0.6,0.4-1,1-1s1,0.4,1,1v3.8C44.7,40.8,44.2,41.2,43.7,41.2z"/>
<path d="M43.7,31.9c-0.6,0-1-0.4-1-1V15.8c0-0.6,0.4-1,1-1s1,0.4,1,1v15.1C44.7,31.5,44.2,31.9,43.7,31.9z"/>
<g>
	<path d="M26.6,26.9v0.8h3.3v0.8h-3.3v2.1h-1.1v-2.1H25v-0.8h0.6v-0.8H25v-1h0.6v-3.6h2.5c0.6,0,1.1,0.1,1.7,0.2c0.4,0.1,0.7,0.4,0.9,0.8c0.2,0.4,0.3,0.8,0.3,1.3c0,0.4-0.1,0.8-0.3,1.1c-0.2,0.3-0.4,0.5-0.7,0.7c-0.3,0.2-0.6,0.3-1,0.4c-0.4,0.1-0.7,0.1-1.1,0.1L26.6,26.9z M28,25.9c0.2,0,0.5,0,0.7-0.1c0.2,0,0.4-0.1,0.6-0.2c0.2-0.1,0.3-0.3,0.4-0.4c0.1-0.2,0.2-0.5,0.1-0.7c0-0.2,0-0.4-0.1-0.6c-0.1-0.2-0.2-0.3-0.4-0.4c-0.2-0.1-0.4-0.2-0.6-0.2c-0.2,0-0.5-0.1-0.7-0.1h-1.5v2.7H28z"/>
	<path d="M26.6,30.8h-1.1c-0.1,0-0.3-0.1-0.3-0.3v-1.8H25c-0.1,0-0.3-0.1-0.3-0.3v-0.8c0-0.1,0.1-0.3,0.3-0.3h0.3v-0.3H25c-0.1,0-0.3-0.1-0.3-0.3v-1c0-0.1,0.1-0.3,0.3-0.3h0.3v-3.4c0-0.1,0.1-0.3,0.3-0.3h2.5c0.6,0,1.2,0.1,1.8,0.2c0.5,0.2,0.8,0.5,1.1,0.9c0.2,0.4,0.4,0.9,0.3,1.4c0,0.4-0.1,0.9-0.3,1.2c-0.2,0.3-0.4,0.6-0.8,0.8c-0.3,0.2-0.7,0.4-1.1,0.4c-0.4,0.1-0.8,0.1-1.2,0.1l-1.1,0v0.3h3.1c0.1,0,0.3,0.1,0.3,0.3v0.8c0,0.1-0.1,0.3-0.3,0.3h-3.1v1.8C26.9,30.7,26.7,30.8,26.6,30.8z M25.8,30.3h0.6v-1.8c0-0.1,0.1-0.3,0.3-0.3h3.1v-0.3h-3.1c-0.1,0-0.3-0.1-0.3-0.3v-0.8c0-0.1,0-0.1,0.1-0.2c0,0,0.1-0.1,0.2-0.1c0,0,0,0,0,0l1.4,0c0.4,0,0.7,0,1.1-0.1c0.3-0.1,0.6-0.2,0.9-0.3c0.2-0.2,0.4-0.4,0.6-0.6c0.2-0.3,0.2-0.7,0.2-1c0-0.4-0.1-0.8-0.3-1.1c-0.2-0.3-0.5-0.5-0.8-0.7c-0.5-0.2-1-0.2-1.6-0.2h-2.3v3.4c0,0.1-0.1,0.3-0.3,0.3h-0.3v0.5h0.3c0.1,0,0.3,0.1,0.3,0.3v0.8c0,0.1-0.1,0.3-0.3,0.3h-0.3v0.3h0.3c0.1,0,0.3,0.1,0.3,0.3V30.3z M28,26.1h-1.4c-0.1,0-0.3-0.1-0.3-0.3v-2.7c0-0.1,0.1-0.3,0.3-0.3h1.5c0.2,0,0.5,0,0.7,0.1c0.2,0,0.4,0.1,0.6,0.3c0.2,0.1,0.4,0.3,0.5,0.5c0.1,0.2,0.2,0.5,0.2,0.7c0,0.3,0,0.5-0.2,0.8c-0.1,0.2-0.3,0.4-0.5,0.5C29.2,26,29,26,28.8,26.1C28.5,26.1,28.3,26.1,28,26.1L28,26.1z M26.9,25.6H28c0,0,0,0,0,0c0.2,0,0.4,0,0.7-0.1c0.2,0,0.4-0.1,0.5-0.2c0.1-0.1,0.2-0.2,0.3-0.3c0.1-0.2,0.1-0.4,0.1-0.6c0-0.2,0-0.4-0.1-0.5c-0.1-0.1-0.2-0.2-0.3-0.3c-0.1-0.1-0.3-0.2-0.5-0.2c-0.2,0-0.4-0.1-0.6-0.1h-1.3V25.6z"/>
</g>
<path d="M22.2,37.4H5.1c-0.6,0-1-0.4-1-1s0.4-1,1-1h17.1c0.6,0,1,0.4,1,1S22.8,37.4,22.2,37.4z"/>
</svg>
