<svg xmlns="http://www.w3.org/2000/svg" viewBox="0 0 56 56">
	<path d="M18.7,49.6H8.1c-1.4,0-2.5-1.1-2.5-2.5V23.5c0-1.4,1.1-2.5,2.5-2.5h10.6c1.4,0,2.5,1.1,2.5,2.5v23.6C21.2,48.5,20.1,49.6,18.7,49.6z M8.1,23.1c-0.2,0-0.4,0.2-0.4,0.4v23.6c0,0.2,0.2,0.4,0.4,0.4h10.6c0.2,0,0.4-0.2,0.4-0.4V23.5c0-0.2-0.2-0.4-0.4-0.4H8.1z"/>
	<path d="M37.8,49.8c-2.8,0-6.2,0-8.8,0c-1.5,0-2.8,0-3.4,0c-0.4,0-0.8-0.1-1.2-0.1c-1.5-0.4-4.2-1.1-5.1-2.3c-0.3-0.5-0.2-1.1,0.3-1.4c0.5-0.3,1.1-0.2,1.4,0.3c0.3,0.3,1.8,1,3.8,1.5c0.3,0.1,0.5,0.1,0.8,0.1c0,0,0,0,0,0c0.6,0,1.9,0,3.4,0c4.4,0,11.8,0.1,13.9,0c1.3-0.1,2-0.9,2.1-1.6c0.1-0.8-0.3-1.4-1.3-1.9c-0.4-0.2-0.7-0.7-0.6-1.2c0.1-0.5,0.5-0.8,1-0.8c1.7,0,2.1-1.1,2.2-1.7c0.1-1-0.4-2.3-1.6-2.7c-0.5-0.1-0.8-0.6-0.7-1.2s0.5-0.9,1.1-0.9c1.3,0.1,2.3-0.9,2.5-1.8c0.2-1-0.4-1.9-1.8-2.5c-0.4-0.2-0.7-0.6-0.6-1c0-0.4,0.3-0.8,0.8-0.9c2-0.5,2.5-1.7,2.4-2.7C48.2,26,47.5,25,46.2,25H33c-0.4,0-0.8-0.2-0.9-0.6c-0.2-0.4-0.1-0.8,0.1-1.1c6.4-8.6,2.1-14.3,2-14.4c-0.2-0.2-0.6-0.6-0.9-0.6c0,0-1,0.3-1.6,4.1c-1.5,8.5-11.1,11-11.5,11.1c-0.6,0.1-1.1-0.2-1.3-0.8c-0.1-0.6,0.2-1.1,0.8-1.3c0.1,0,8.8-2.3,10-9.5c0.6-3.5,1.6-5.4,3.2-5.8c1.7-0.4,2.9,1.1,3.1,1.3C36,8,40.6,14,35,23h11.2c2.1,0,3.9,1.5,4.2,3.6c0.2,1.3-0.3,3-2,4.1c1.2,1.2,1.5,2.6,1.2,3.7c-0.3,1.2-1.1,2.2-2.1,2.8c0.8,0.9,1.1,2.2,1,3.5c-0.2,1.3-0.9,2.3-2,2.9c0.6,0.9,0.8,1.9,0.6,2.7c-0.3,1.8-2,3.2-4,3.3C42.1,49.7,40.1,49.8,37.8,49.8z"/>
	<path d="M13.4,46c-1.5,0-2.7-1.2-2.7-2.7c0-1.5,1.2-2.7,2.7-2.7c1.5,0,2.7,1.2,2.7,2.7C16.1,44.8,14.9,46,13.4,46zM13.4,42.2c-0.6,0-1.2,0.5-1.2,1.1c0,0.6,0.5,1.2,1.2,1.2c0.6,0,1.1-0.5,1.1-1.2C14.6,42.7,14,42.2,13.4,42.2z"/>
</svg>
