<svg xmlns="http://www.w3.org/2000/svg" viewBox="0 0 56 56">
<path d="M28,29.7c-2,0-3.6-1.6-3.6-3.6v-2c0-2,1.6-3.6,3.6-3.6s3.6,1.6,3.6,3.6v2C31.6,28.1,30,29.7,28,29.7z M28,22.5c-0.9,0-1.6,0.7-1.6,1.6v2c0,0.9,0.7,1.6,1.6,1.6c0.9,0,1.6-0.7,1.6-1.6v-2C29.6,23.2,28.9,22.5,28,22.5z"/>
<path d="M10,33.4c-1.4,0-2.2-0.3-2.7-1c-0.6-0.7-1.6-3.5-3.1-8.2c-0.3-0.9-0.3-1.8,0-2.7c0.5-1.4,2.1-3.7,6.8-3.4c6,0.4,7.7,1.3,13.4,4.1l1.4,0.7c0.5,0.2,0.7,0.8,0.5,1.3c-0.2,0.5-0.8,0.7-1.3,0.5L23.5,24c-5.6-2.8-7.1-3.5-12.7-3.9c-1.8-0.1-4.1,0.2-4.8,2.1c-0.1,0.4-0.1,0.9,0,1.4c1.6,5,2.5,7.2,2.8,7.6c0.1,0.1,1,0.8,7.8-1.2c2.9-0.9,5.8-2.1,8.5-3.6c0.5-0.3,1.1-0.1,1.3,0.4c0.3,0.5,0.1,1.1-0.4,1.3c-2.8,1.5-5.8,2.7-8.9,3.7C14,32.9,11.6,33.4,10,33.4z"/>
<path d="M27,22.7c-0.5,0-0.9-0.4-1-0.9c0-0.1-0.7-5.4-3.9-8.7c-3.4-3.5-5.1-4-7-4.3c-1.3-0.2-1.8,1.2-1.8,1.2c0,0,0,0.1,0,0.1l-2.7,5.8c0,0.2-0.2,1.4,1.9,2.4c0.5,0.2,0.7,0.8,0.5,1.3c-0.2,0.5-0.8,0.7-1.3,0.5c-3.2-1.4-3.3-3.8-3-4.9c0,0,0-0.1,0-0.1l2.7-5.8c0.4-1,1.7-2.9,4-2.5c2.6,0.4,4.7,1.3,8.1,4.9c3.7,3.8,4.4,9.6,4.5,9.9c0.1,0.5-0.3,1-0.9,1.1C27.1,22.7,27,22.7,27,22.7z"/>
<path d="M14.3,49.2c-0.2,0-0.4-0.1-0.5-0.2c-4.9-3.1-6.5-5-6.5-5.1c-0.1-0.1-0.2-0.3-0.2-0.4c-0.5-2.2-0.1-4.5,1.1-6.4c1.7-2.5,3.7-4.6,6.2-6.4c0.4-0.3,1.1-0.2,1.4,0.2c0.3,0.4,0.2,1.1-0.2,1.4c-2.2,1.6-4.1,3.6-5.6,5.8c-0.9,1.3-1.2,3-0.9,4.6c0.4,0.4,1.7,1.7,4.6,3.7c1-4.7,4.1-8.7,6.3-11.4l0.1-0.2c1.1-1.5,5.6-7,5.8-7.3c0.3-0.4,1-0.5,1.4-0.2c0.4,0.3,0.5,1,0.2,1.4c0,0.1-4.6,5.8-5.7,7.3l-0.2,0.2c-2.4,3-5.6,7.2-6.1,12c0,0.3-0.2,0.6-0.6,0.8C14.6,49.1,14.4,49.2,14.3,49.2z"/>
<path d="M46,33.5c-1.6,0-4-0.5-7.3-1.5c-3.1-1-6.1-2.3-8.9-3.9c-0.5-0.3-0.7-0.9-0.4-1.4c0.3-0.5,0.9-0.7,1.4-0.4c2.7,1.5,5.6,2.7,8.5,3.7c6.8,2,7.7,1.3,7.7,1.2c0.3-0.4,1.3-2.6,2.9-7.6c0.2-0.5,0.2-1,0-1.4c-0.7-1.9-3-2.2-4.8-2.1c-5.5,0.4-7,1.1-12.5,3.9l-1.5,0.8c-0.5,0.2-1.1,0-1.3-0.5c-0.2-0.5,0-1.1,0.5-1.3l1.5-0.8c5.6-2.8,7.3-3.7,13.3-4.1c4.8-0.3,6.3,2,6.8,3.4c0.3,0.9,0.3,1.8,0,2.7c-1.5,4.7-2.6,7.4-3.2,8.2C48.2,33.1,47.3,33.5,46,33.5z"/>
<path d="M29.1,22.8c0,0-0.1,0-0.1,0c-0.5-0.1-0.9-0.6-0.9-1.1c0-0.2,0.7-6,4.4-9.9C36,8.2,38,7.3,40.6,6.9c2.3-0.4,3.6,1.4,4,2.5l2.7,5.8c0,0,0,0.1,0,0.1c0.4,1.1,0.2,3.4-2.9,4.9c-0.5,0.2-1.1,0-1.3-0.5c-0.2-0.5,0-1.1,0.5-1.3c2.1-0.9,1.9-2.1,1.9-2.4l-2.7-5.8c0,0,0-0.1,0-0.1c-0.1-0.1-0.5-1.4-1.8-1.2c-1.9,0.3-3.6,0.8-7,4.3c-3.2,3.4-3.9,8.7-3.9,8.7C30,22.4,29.6,22.8,29.1,22.8z"/>
<path d="M41.7,49.2c-0.1,0-0.3,0-0.4-0.1c-0.3-0.2-0.5-0.5-0.6-0.8c-0.5-4.8-3.7-8.9-6.1-11.9l-0.2-0.2c-1.1-1.5-5.8-7.3-5.8-7.3l1.6-1.2c0,0,4.6,5.9,5.8,7.3l0.2,0.2c2.1,2.7,5.2,6.7,6.2,11.4c2.9-1.9,4.2-3.2,4.6-3.7c0.3-1.6,0-3.3-0.9-4.6c-1.5-2.3-3.3-4.2-5.5-5.8c-0.4-0.3-0.5-0.9-0.2-1.4c0.3-0.4,0.9-0.5,1.4-0.2c2.4,1.7,4.4,3.9,6,6.3c1.2,1.9,1.6,4.2,1.1,6.4c0,0.1-0.1,0.3-0.2,0.4c-0.1,0.1-1.6,2-6.6,5.1C42.1,49.2,41.9,49.2,41.7,49.2z"/>
</svg>
